<svg xmlns="http://www.w3.org/2000/svg" xmlns:xlink="http://www.w3.org/1999/xlink" width="40" height="40" viewBox="0 0 40 40">
    <defs>
        <path id="bh3sm6tjwa" d="M0 0L17 0 17 11 0 11z"/>
    </defs>
    <g fill="none" fill-rule="evenodd">
        <path fill="#1B1B1B" d="M16.654 0c6.527 0 8.863 8.757 9.139 13.97.023.065.039.135.045.207.04.459-.299.863-.757.903-.459.04-.863-.299-.903-.757v.006c-.196-3.792-1.972-12.61-7.524-12.61-5.554 0-7.29 8.81-7.48 12.613-.049.456-.452.794-.91.754-.458-.04-.797-.445-.757-.903v.001C7.726 9.002 10.036 0 16.653 0z" transform="translate(-1272 -46) translate(0 38) translate(968) translate(304 8) translate(3.333 3.318)"/>
        <path fill="#F94F0D" d="M1 8.349h30.593c.552 0 1 .447 1 1v23c0 .552-.448 1-1 1H1c-.552 0-1-.448-1-1v-23c0-.553.448-1 1-1z" transform="translate(-1272 -46) translate(0 38) translate(968) translate(304 8) translate(3.333 3.318)"/>
        <path fill="#1B1B1B" d="M9.259 15.941H24.073999999999998V26.311H9.259z" transform="translate(-1272 -46) translate(0 38) translate(968) translate(304 8) translate(3.333 3.318)"/>
    
        <g transform="translate(-1272 -46) translate(0 38) translate(968) translate(304 8) translate(11 19)">
            <mask id="gb4irn52vb" fill="#fff">
                <use xlink:href="#bh3sm6tjwa"/>
            </mask>
            <path fill="#F94F0D" d="M0 11L17 11 17 0 0 0z" mask="url(#gb4irn52vb)"/>
        </g>
        <path fill="#FFFFFE" d="M0.398 10.566L16.602 10.566 16.602 0.434 0.398 0.434z" transform="translate(-1272 -46) translate(0 38) translate(968) translate(304 8) translate(11 19)"/>
        <path fill="#000002" d="M0.797 10.132L16.203 10.132 16.203 0.868 0.797 0.868z" transform="translate(-1272 -46) translate(0 38) translate(968) translate(304 8) translate(11 19)"/>
        <path fill="#FFFFFE" d="M1.063 6.079v.07H.838v.509H.759v-.51H.531v-.07h.531zm10.2 0c.2 0 .265.158.265.29 0 .131-.066.289-.264.289s-.267-.158-.267-.29c0-.131.069-.29.267-.29zm1.027 0l.136.51h.004l.142-.51h.09l.143.51.14-.51h.07l-.164.579h-.093l-.14-.51h-.002l-.143.51h-.093l-.161-.58h.071zm-4.695 0c.198 0 .268.158.268.29 0 .131-.07.289-.268.289s-.264-.158-.264-.29c0-.131.066-.29.264-.29zm-5.649 0c.117 0 .241.033.249.161h-.087c-.008-.077-.087-.099-.177-.099-.083 0-.151.04-.151.1 0 .029.019.062.09.073l.208.032c.094.015.136.067.136.136 0 .11-.102.176-.268.176-.162 0-.256-.059-.264-.18h.087c0 .074.071.118.18.118.118 0 .182-.044.182-.106 0-.15-.434-.015-.434-.242 0-.107.094-.17.249-.17zm.97 0v.342c0 .105.065.173.183.173s.182-.068.182-.173V6.08h.084v.335c0 .161-.11.244-.266.244-.156 0-.266-.083-.266-.244v-.335h.084zm3.284 0l.175.51.173-.51h.093v.579h-.059v-.52l-.175.52h-.061l-.178-.52h-.003v.52h-.056v-.58h.09zm3.87 0c.127 0 .222.066.23.158h-.085c-.014-.07-.077-.096-.148-.096-.123 0-.211.074-.211.227 0 .154.088.228.211.228.07 0 .14-.033.155-.106h.084c-.017.12-.126.168-.257.168-.186 0-.274-.14-.274-.29 0-.131.074-.29.296-.29zm-5.996 0l.175.51.174-.51h.093v.579h-.059v-.52l-.177.52h-.06l-.177-.52H4.04v.52h-.056v-.58h.09zm4.743 0c.117 0 .241.033.252.161h-.086c-.008-.077-.09-.099-.181-.099-.08 0-.147.04-.147.1 0 .029.019.062.087.073l.21.032c.091.015.132.067.132.136 0 .11-.098.176-.267.176-.158 0-.252-.059-.264-.18h.087c.004.074.075.118.18.118.121 0 .185-.044.185-.106 0-.15-.433-.015-.433-.242 0-.107.09-.17.245-.17zm2.447.062c-.117 0-.195.092-.195.227 0 .136.078.228.195.228.113 0 .192-.092.192-.228 0-.135-.079-.227-.192-.227zm-3.669 0c-.113 0-.191.092-.191.227 0 .136.078.228.191.228.117 0 .195-.092.195-.228 0-.135-.078-.227-.195-.227zM4.46 0v4.342h-.154V0h.154zm4.515 0v4.342h-.154V0h.154zM1.127.579v.13H.8v2.905h1.322V.71h-.327V.579h1.127v.13h-.33v2.905h.33v.439h-.047v-.008c0-.121-.088-.276-.204-.298l-.027-.002H0v-.131h.327V.71H0V.579h1.127zm10.301.29l.669 2.103.656-2.104h.794v.12h-.3v2.656h.3v.12H12.48v-.12h.319V1.14h-.006l-.785 2.504h-.175l-.8-2.457h-.006v2.128c0 .26.032.329.213.329h.134v.12h-.75v-.12h.088c.17 0 .208-.061.212-.285V.988h-.3v-.12h.803zm-5.342 0V.99h-.135c-.115 0-.16.039-.16.104 0 .067.023.14.073.266l.02.05.63 1.616L7.431.99h-.299V.868h1.101v.123h-.288L6.748 3.645h.299v.118H5.948v-.118h.29l.214-.482-.77-1.957c-.041-.105-.08-.199-.19-.213L5.46.99h-.147V.868h.773z" transform="translate(-1272 -46) translate(0 38) translate(968) translate(304 8) translate(11 19) translate(1.594 2.316)"/>
        <path fill="#F94F0D" d="M5.047 6.658L5.578 6.658 5.578 6.079 5.047 6.079z" transform="translate(-1272 -46) translate(0 38) translate(968) translate(304 8) translate(11 19) translate(1.594 2.316)"/>
    </g>
</svg>
