<!-- icon666.com - MILLIONS vector ICONS FREE --><svg version="1.1" id="Capa_1" xmlns="http://www.w3.org/2000/svg" xmlns:xlink="http://www.w3.org/1999/xlink" x="0px" y="0px" viewBox="0 0 512 512" style="enable-background:new 0 0 512 512;" xml:space="preserve"><g><path style="fill:#3BD2E8;" d="M168.35,75.435l-92.724,92.724l-37.529-56.294l73.959-73.959L168.35,75.435z"></path><path style="fill:#3BD2E8;" d="M66.343,190.299V321.43L0,308.162V203.568L66.343,190.299z"></path><path style="fill:#3BD2E8;" d="M75.435,343.65l92.724,92.724l-56.294,37.529l-73.959-73.959L75.435,343.65z"></path></g><g><polygon style="fill:#00B6D1;" points="308.435,0 321.705,66.34 226.135,66.34 256.135,0 "></polygon><polygon style="fill:#00B6D1;" points="321.425,445.66 308.165,512 256.135,512 226.135,445.66 "></polygon></g><g><polygon style="fill:#3BD2E8;" points="256.135,445.66 256.135,512 203.565,512 190.295,445.66 "></polygon><polygon style="fill:#3BD2E8;" points="256.135,0 256.135,66.34 190.565,66.34 203.835,0 "></polygon></g><g><path style="fill:#00B6D1;" d="M343.65,436.565l92.724-92.724l37.529,56.294l-73.959,73.959L343.65,436.565z"></path><path style="fill:#00B6D1;" d="M445.657,321.701V190.57L512,203.838v104.594L445.657,321.701z"></path><path style="fill:#00B6D1;" d="M436.565,168.35l-92.724-92.724l56.294-37.529l73.959,73.959L436.565,168.35z"></path></g><path style="fill:#0098AD;" d="M256.135,36c121.312,0,220,98.688,220,220s-98.688,220-220,220l-110-220L256.135,36z"></path><path style="fill:#00B6D1;" d="M256.135,36v440c-121.312,0-220-98.688-220-220S134.824,36,256.135,36z"></path><path style="fill:#3BD2E8;" d="M256.135,91c90.984,0,165,74.016,165,165s-74.016,165-165,165l-82.5-165L256.135,91z"></path><path style="fill:#75EEFF;" d="M256.135,91v330c-90.984,0-165-74.016-165-165S165.152,91,256.135,91z"></path><path style="fill:#FEEDAD;" d="M256.135,121c74.441,0,135,60.559,135,135s-45.559,134.162-120,134.162L188.635,256L256.135,121z"></path><path style="fill:#FFFFFF;" d="M256.135,121v240l-13.784,29.302c-67.99-6.926-121.216-64.513-121.216-134.302 C121.135,181.559,181.694,121,256.135,121z"></path><path style="fill:#B79375;" d="M241.135,336v54.162c4.927,0.547,9.93,0.838,15,0.838s10.073-0.291,15-0.838V336l-15,10L241.135,336z "></path><path style="fill:#9BC135;" d="M256.135,346l46.364-63.864L361.135,241C361.135,298.986,314.122,346,256.135,346z"></path><path style="fill:#B8D75D;" d="M361.135,241l-105,105C256.135,288.014,303.149,241,361.135,241z"></path><path style="fill:#9BC135;" d="M256.135,346l-46.364-63.864L151.135,241C151.135,298.986,198.149,346,256.135,346z"></path><path style="fill:#B8D75D;" d="M151.135,241l105,105C256.135,288.014,209.122,241,151.135,241z"></path><g><rect x="241.13" y="151" style="fill:#7FAB0D;" width="30" height="30"></rect><rect x="177.499" y="177.365" transform="matrix(-0.7071 -0.7071 0.7071 -0.7071 192.5941 464.5041)" style="fill:#7FAB0D;" width="30" height="30"></rect><rect x="304.772" y="177.357" transform="matrix(-0.7071 -0.7071 0.7071 -0.7071 409.8672 554.4868)" style="fill:#7FAB0D;" width="30" height="30"></rect></g></svg>