<!-- icon666.com - MILLIONS vector ICONS FREE --><svg viewBox="-32 0 511 512" xmlns="http://www.w3.org/2000/svg"><path d="m122.96875 326.640625h298.117188v177.859375h-298.117188zm0 0" fill="#87d1ea"></path><path d="m122.96875 326.695312v34.398438c98.273438 20.875 199.84375 20.875 298.117188 0v-34.398438c-98.273438 20.875-199.84375 20.875-298.117188 0zm0 0" fill="#5fa6ce"></path><path d="m104.554688 304.578125v26.179687c0 1.859376 1.277343 3.476563 3.082031 3.902344 108.117187 25.453125 220.664062 25.453125 328.777343 0 1.808594-.425781 3.085938-2.042968 3.085938-3.902344v-26.179687c0-2.578125-2.402344-4.472656-4.914062-3.886719-106.945313 24.878906-218.175782 24.878906-325.117188 0-2.511719-.585937-4.914062 1.308594-4.914062 3.886719zm0 0" fill="#cae5ed"></path><path d="m31.972656 110.015625 20.066406 70.820313h99.734376l20.066406-70.820313zm0 0" fill="#c2f4ff"></path><path d="m147.472656 110.015625-20.066406 70.820313h24.367188l20.066406-70.820313zm0 0" fill="#87d1ea"></path><path d="m14.328125 84.640625-6.160156 20.207031c-.78125 2.570313 1.140625 5.167969 3.824219 5.167969h179.824218c2.6875 0 4.609375-2.597656 3.824219-5.167969l-6.160156-20.207031c-.511719-1.683594-2.066407-2.835937-3.824219-2.835937h-167.5c-1.761719 0-3.3125 1.152343-3.828125 2.835937zm0 0" fill="#aabfd5"></path><path d="m195.640625 104.847656-6.160156-20.207031c-.511719-1.683594-2.066407-2.832031-3.824219-2.832031h-25.367188c1.761719 0 3.3125 1.148437 3.824219 2.832031l6.164063 20.207031c.78125 2.570313-1.140625 5.167969-3.828125 5.167969h25.367187c2.6875 0 4.609375-2.597656 3.824219-5.167969zm0 0" fill="#7d8eb0"></path><path d="m31.378906 184.835938v18.382812c0 2.207031 1.789063 4 4 4h133.054688c2.207031 0 4-1.792969 4-4v-18.382812c0-2.207032-1.792969-4-4-4h-133.054688c-2.210937 0-4 1.792968-4 4zm0 0" fill="#aabfd5"></path><path d="m168.433594 180.835938h-25.460938c2.207032 0 4 1.792968 4 4v18.382812c0 2.207031-1.792968 4-4 4h25.460938c2.207031 0 4-1.792969 4-4v-18.382812c0-2.207032-1.792969-4-4-4zm0 0" fill="#7d8eb0"></path><path d="m58.371094 207.21875-31.53125 297.28125h150.132812l-31.53125-297.28125zm0 0" fill="#e6f6fc"></path><path d="m145.441406 207.21875h-25l31.53125 297.28125h25zm0 0" fill="#cae5ed"></path><path d="m52.601562 261.617188-6.597656 62.195312h111.804688l-6.597656-62.195312zm0 0" fill="#ea6789"></path><path d="m132.808594 323.8125h25l-.167969-1.589844-6.429687-60.605468h-25zm0 0" fill="#c7416a"></path><path d="m171.203125 450.097656-6.597656-62.195312h-125.402344l-6.59375 62.195312zm0 0" fill="#ea6789"></path><path d="m139.605469 387.902344 6.597656 62.195312h25l-6.597656-62.195312zm0 0" fill="#c7416a"></path><path d="m101.90625 43.585938c-26.226562 0-48.785156 15.703124-58.785156 38.21875h117.566406c-10-22.515626-32.554688-38.21875-58.78125-38.21875zm0 0" fill="#cae5ed"></path><path d="m101.90625 43.585938c-3.21875 0-6.382812.234374-9.476562.691406 15.960937 3.265625 29.28125 17.777344 35.617187 37.527344h32.640625c-10-22.515626-32.554688-38.21875-58.78125-38.21875zm0 0" fill="#9bb8d1"></path><path d="m419.707031 152.484375-5.097656 1.367187c-5.238281 1.402344-10.90625-.585937-13.851563-5.140624-4.417968-6.832032-12.734374-10.027344-20.582031-7.925782l-127.390625 34.136719-23.867187-12.582031c-.410157-.214844-.882813-.265625-1.328125-.148438l-24.4375 6.546875c-1.390625.375-1.828125 2.132813-.773438 3.113281l49.832032 46.332032c6.09375 5.667968 14.671874 7.800781 22.710937 5.644531l152.921875-40.972656c8.386719-2.25 13.363281-10.867188 11.117188-19.253907-2.246094-8.386718-10.867188-13.363281-19.253907-11.117187zm0 0" fill="#ea6789"></path><path d="m306.128906 248.691406-17.105468 4.585938c-2.511719.671875-4.585938-2.023438-3.292969-4.28125l26.46875-46.125c1.746093-3.042969 4.632812-5.261719 8.019531-6.171875l42.433594-11.371094c3.015625-.804687 5.226562 2.808594 3.132812 5.125l-43.855468 48.574219c-4.226563 4.675781-9.710938 8.035156-15.800782 9.664062zm0 0" fill="#56a6e8"></path><path d="m442.660156 295.585938c-2.761718-2.195313-6.320312-3-9.773437-2.199219-80.753907 18.789062-163.449219 23.289062-245.78125 13.367187-4.105469-.488281-7.847657 2.4375-8.34375 6.550782-.496094 4.109374 2.4375 7.847656 6.546875 8.339843 82.621094 9.957031 165.59375 5.691407 246.6875-12.664062v19.007812c-4.058594.941407-8.121094 1.84375-12.1875 2.710938-.199219.035156-.390625.074219-.582032.125-24.074218 5.109375-48.277343 8.957031-72.558593 11.535156-.039063 0-.074219 0-.109375 0-.578125 0-1.140625.066406-1.679688.191406-23.925781 2.480469-47.925781 3.730469-71.953125 3.753907-.292969-.035157-.59375-.054688-.898437-.054688-.300782 0-.597656.019531-.890625.054688-24.117188-.042969-48.257813-1.320313-72.382813-3.839844-.304687-.050782-.613281-.082032-.929687-.097656-10.3125-1.089844-20.621094-2.40625-30.921875-3.953126l-1.628906-15.359374c-.003907-.011719-.003907-.023438-.003907-.03125l-2.636719-24.863282-8.851562-83.445312h14.652344c6.34375 0 11.5-5.15625 11.5-11.5v-18.378906c0-6.339844-5.15625-11.5-11.5-11.5h-6.738282l15.816407-55.820313h14.304687c3.628906 0 7.085938-1.742187 9.246094-4.65625 2.15625-2.917969 2.8125-6.730469 1.753906-10.199219l-6.160156-20.210937c-1.484375-4.871094-5.90625-8.144531-11-8.144531h-20.277344c-11.203125-21.164063-32.269531-35.335938-55.972656-37.828126v-21.476562h16.867188c4.144531 0 7.5-3.359375 7.5-7.5s-3.355469-7.5-7.5-7.5h-48.730469c-4.144531 0-7.5 3.359375-7.5 7.5s3.355469 7.5 7.5 7.5h16.863281v21.472656c-4.347656.453125-8.640625 1.300782-12.824219 2.535156-3.972656 1.167969-6.246093 5.339844-5.074219 9.3125 1.171876 3.972657 5.34375 6.242188 9.3125 5.074219 5.199219-1.535156 10.609376-2.308593 16.085938-2.308593 18.308594 0 35.25 8.824218 45.816406 23.21875h-91.628906c1.785156-2.433594 3.773438-4.730469 5.953125-6.878907 2.949219-2.90625 2.980469-7.65625.074219-10.605469-2.90625-2.949218-7.65625-2.984374-10.605469-.074218-5.269531 5.191406-9.65625 11.082031-13.082031 17.558594h-20.277344c-5.09375 0-9.511719 3.273437-11 8.144531v.003906l-6.160156 20.207031c-1.058594 3.472656-.398438 7.285156 1.757812 10.199219 2.160156 2.914063 5.613282 4.65625 9.242188 4.65625h14.308594l15.816406 55.820313h-6.738282c-6.34375 0-11.5 5.160156-11.5 11.5v18.378906c0 6.339844 5.15625 11.5 11.5 11.5h14.652344l-4.890625 46.097656v.011719l-6.597656 62.195312v.003907l-19.164063 180.6875c-.226562 2.113281.457032 4.222656 1.878907 5.804687 1.425781 1.582031 3.449219 2.484375 5.578125 2.484375h394.246094c4.144531 0 7.5-3.359375 7.5-7.5v-160.359375c3.179687-.703125 6.355468-1.429687 9.527343-2.175781 5.230469-1.210938 8.882813-5.820313 8.882813-11.203125v-26.183594c0-3.519531-1.578125-6.800781-4.335938-8.992187zm-178.132812 201.414062h-59.53125v-138.84375c19.84375 1.859375 39.695312 2.894531 59.53125 3.109375zm-74.53125-140.402344v140.402344h-6.277344l-5.050781-47.648438c-.003907-.015624-.003907-.03125-.007813-.042968l-6.59375-62.195313c-.003906-.015625-.003906-.03125-.007812-.046875l-3.527344-33.25c7.15625 1.035156 14.308594 1.960938 21.464844 2.78125zm-144.042969 38.804688h111.90625l5.007813 47.195312h-121.917969zm1.589844-15 5.207031-49.089844h98.3125l5.207031 49.089844zm101.929687-64.089844h-95.128906l5.003906-47.195312h85.117188zm-3.367187-142.976562h-36.699219v-55.820313h52.515625zm-125.359375-84.03125h162.320312l4.023438 13.210937h-170.367188zm21.148437 28.210937h52.511719v55.820313h-36.695312zm-3.015625 70.820313h126.054688v11.378906h-126.054688zm99.816406 26.378906 4.179688 39.402344h-81.9375l4.179688-39.402344zm-103.519531 282.285156 4.179688-39.402344h125.101562l4.179688 39.402344zm378.410157 0h-59.527344v-88.054688c0-4.144531-3.355469-7.5-7.5-7.5-4.140625 0-7.5 3.355469-7.5 7.5v88.054688h-59.53125v-135.730469c19.875-.199219 39.726562-1.222656 59.53125-3.074219v20.746094c0 4.140625 3.355468 7.5 7.5 7.5 4.140625 0 7.5-3.359375 7.5-7.5v-22.300781c19.90625-2.28125 39.757812-5.394531 59.527344-9.339844zm0 0"></path><path d="m194.574219 168.261719c-.820313 3.300781.222656 6.785156 2.703125 9.082031l49.824218 46.332031c5.957032 5.539063 13.617188 8.492188 21.5 8.492188 2.75 0 5.527344-.359375 8.265626-1.09375l12.414062-3.328125-10.050781 17.519531c-4.609375 8.027344 2.789062 17.652344 11.734375 15.257813l17.105468-4.585938c7.503907-2.007812 14.222657-6.121094 19.425782-11.882812l31.625-35.027344 70.660156-18.929688c5.992188-1.601562 11-5.441406 14.101562-10.816406 3.101563-5.371094 3.925782-11.628906 2.320313-17.617188-2.710937-10.140624-11.933594-17.222656-22.425781-17.222656-1.996094 0-4.011719.265625-6.015625.796875l-5.09375 1.367188c-2.179688.582031-4.488281-.226563-5.613281-1.96875-6.210938-9.597657-17.796876-14.050781-28.820313-11.089844l-124.550781 33.371094-21.347656-11.253907c-2.074219-1.058593-4.445313-1.316406-6.691407-.714843l-24.414062 6.542969c-3.285157.871093-5.835938 3.46875-6.65625 6.769531zm121.789062 65.738281c-3.261719 3.613281-7.472656 6.1875-12.175781 7.449219l-6.46875 1.734375 13.519531-23.5625c.019531-.035156.039063-.066406.058594-.101563l7.410156-12.914062c.746094-1.300781 2.007813-2.269531 3.457031-2.660157l28.148438-7.542968-.597656.664062c-.171875.171875-.332032.351563-.488282.539063zm-88.980469-63.992188 21.90625 11.546876c1.671876.878906 3.613282 1.097656 5.4375.609374l127.394532-34.132812c4.722656-1.265625 9.679687.644531 12.339844 4.75 4.6875 7.25 13.558593 10.589844 22.089843 8.3125l5.074219-1.363281c4.589844-1.21875 8.945312 1.539062 10.089844 5.8125.566406 2.121093.273437 4.335937-.820313 6.238281-1.097656 1.898438-2.867187 3.257812-4.988281 3.824219l-51.851562 13.890625c.246093-2.269532-.25-4.613282-1.519532-6.6875-2.480468-4.054688-7.226562-5.953125-11.820312-4.722656l-42.433594 11.367187c-5.277344 1.414063-9.863281 4.945313-12.582031 9.683594l-5.886719 10.253906-26.824219 7.191406c-5.582031 1.496094-11.441406.035157-15.671875-3.894531l-42.324218-39.355469zm0 0"></path><path d="m376.496094 171.695312c.644531 0 1.296875-.082031 1.945312-.257812l3.101563-.828125c4-1.074219 6.375-5.183594 5.300781-9.1875-1.070312-4-5.1875-6.371094-9.183594-5.304687l-3.097656.832031c-4.003906 1.070312-6.378906 5.183593-5.304688 9.1875.898438 3.347656 3.929688 5.558593 7.238282 5.558593zm0 0"></path><path d="m343.027344 178.640625c.644531 0 1.296875-.082031 1.945312-.257813l3.097656-.828124c4.003907-1.074219 6.375-5.1875 5.304688-9.1875s-5.183594-6.371094-9.1875-5.300782l-3.097656.828125c-4 1.074219-6.375 5.183594-5.300782 9.1875.898438 3.347657 3.925782 5.558594 7.238282 5.558594zm0 0"></path><path d="m309.558594 185.585938c.640625 0 1.292968-.082032 1.945312-.257813l3.097656-.832031c4-1.070313 6.375-5.183594 5.300782-9.183594-1.070313-4-5.183594-6.375-9.183594-5.304688l-3.097656.832032c-4.003906 1.070312-6.375 5.183594-5.304688 9.183594.898438 3.351562 3.929688 5.5625 7.242188 5.5625zm0 0"></path></svg>