<!-- icon666.com - MILLIONS vector ICONS FREE --><svg version="1.1" id="Capa_1" xmlns="http://www.w3.org/2000/svg" xmlns:xlink="http://www.w3.org/1999/xlink" x="0px" y="0px" viewBox="0 0 512 512" style="enable-background:new 0 0 512 512;" xml:space="preserve"><polygon style="fill:#C24E3D;" points="276.05,91.053 297.893,65.414 477.319,65.414 477.319,91.053 "></polygon><rect x="69.598" y="65.419" style="fill:#E3E3E3;" width="148.772" height="25.639"></rect><path style="fill:#FF6650;" d="M512,383.592V98.545c0-9.775-7.924-17.699-17.699-17.699H46.903c-5.275,0-10.275,2.354-13.638,6.418 l-1.764,2.132c-2.625,3.174-4.061,7.164-4.061,11.281v12.17h79.27c2.82,0,5.247,2.734,5.247,5.555v181.184 c0,2.82-2.427,5.555-5.247,5.555H21.296l0.344-0.427h-0.344l-11.58,11.277c-3.422,3.332-5.351,7.905-5.351,12.68v54.918 c0,0.787,0.069,1.556,0.169,2.315h507.296C511.931,385.148,512,384.379,512,383.592z"></path><rect x="4.534" y="331.222" style="fill:#2D415A;" width="23.669" height="52.12"></rect><rect x="4.534" y="331.222" style="fill:#FF6650;" width="11.834" height="52.12"></rect><rect x="27.348" y="123.107" style="fill:#6FEBE7;" width="74.354" height="78.2"></rect><path style="fill:#2D415A;" d="M4.534,385.907c1.137,8.678,8.543,15.384,17.531,15.384H494.3c8.988,0,16.394-6.706,17.531-15.384 H4.534z"></path><circle style="fill:#4A4A4A;" cx="133.325" cy="393.603" r="52.984"></circle><circle style="fill:#E3E3E3;" cx="133.325" cy="393.603" r="35.468"></circle><circle style="fill:#4A4A4A;" cx="405.102" cy="393.603" r="52.984"></circle><circle style="fill:#E3E3E3;" cx="405.102" cy="393.603" r="35.468"></circle><g><path style="fill:#2D415A;" d="M129.906,112.847c-2.82,0-5.128,2.308-5.128,5.128v205.253c0,2.82,2.3,4.941,5.111,4.712 c0,0,0.528-0.044,3.406-0.044c33.609,0,62.884,53.509,62.884,53.509c1.354,2.474,3.725,4.498,5.271,4.498 c1.546,0,2.81-2.308,2.81-5.128V117.973c0-2.82-2.308-5.128-5.128-5.128h-69.228V112.847z"></path><path style="fill:#2D415A;" d="M297.893,226.942c0,2.82-2.308,5.128-5.128,5.128h-69.167c-2.82,0-5.128-2.308-5.128-5.128v-108.54 c0-2.82,2.308-5.128,5.128-5.128h69.167c2.82,0,5.128,2.308,5.128,5.128V226.942z"></path><path style="fill:#2D415A;" d="M390.136,226.942c0,2.82-2.308,5.128-5.128,5.128h-69.167c-2.82,0-5.128-2.308-5.128-5.128v-108.54 c0-2.82,2.308-5.128,5.128-5.128h69.167c2.82,0,5.128,2.308,5.128,5.128V226.942z"></path><path style="fill:#2D415A;" d="M482.417,226.942c0,2.82-2.308,5.128-5.128,5.128h-69.167c-2.82,0-5.128-2.308-5.128-5.128v-108.54 c0-2.82,2.308-5.128,5.128-5.128h69.167c2.82,0,5.128,2.308,5.128,5.128V226.942z"></path><rect x="10.256" y="136.35" style="fill:#2D415A;" width="35.895" height="10.424"></rect><polygon style="fill:#2D415A;" points="21.296,136.35 0,136.35 10.256,221.173 21.296,221.173 "></polygon><path style="fill:#2D415A;" d="M111.958,299.587V118.403c0-2.82-2.427-5.555-5.247-5.555H27.348l0,0l0,0v10.256h74.354v171.784 H27.061c-0.715,3.419-2.429,7.009-4.971,9.484l-0.449,0.772h85.071C109.531,305.143,111.958,302.407,111.958,299.587z"></path><path style="fill:#2D415A;" d="M106.711,305.143c2.82,0,5.247-2.734,5.247-5.555V118.403c0-2.82-2.427-5.555-5.247-5.555H27.348 l0,0h79.363c2.82,0,5.247,2.734,5.247,5.555v181.184C111.958,302.407,109.531,305.143,106.711,305.143H21.64h-0.344H106.711z"></path><rect x="27.348" y="116.698" style="fill:#2D415A;" width="84.491" height="53.75"></rect></g><rect x="135.03" y="123.107" style="fill:#6FEBE7;" width="58.971" height="78.2"></rect><path style="fill:#54B3AF;" d="M135.034,317.678c25.203,1.032,46.584,24.277,58.971,41.365V201.302h-58.971 C135.034,201.302,135.034,317.678,135.034,317.678z"></path><rect x="228.613" y="123.107" style="fill:#6FEBE7;" width="58.971" height="78.2"></rect><rect x="228.613" y="201.307" style="fill:#54B3AF;" width="58.971" height="20.511"></rect><rect x="320.915" y="123.107" style="fill:#6FEBE7;" width="58.971" height="78.2"></rect><rect x="320.915" y="201.307" style="fill:#54B3AF;" width="58.971" height="20.511"></rect><rect x="413.217" y="123.107" style="fill:#6FEBE7;" width="58.971" height="78.2"></rect><g><rect x="413.217" y="201.307" style="fill:#54B3AF;" width="58.971" height="20.511"></rect><path style="fill:#54B3AF;" d="M27.348,291.263c0,1.228-0.04,2.441-0.287,3.624h74.641v-93.584H27.348V291.263z"></path></g><path style="fill:#C24E3D;" d="M490.139,247.453H297.843h-0.001h-79.481c-1.415,0-2.564,1.149-2.564,2.564V369.24 c0,1.415,1.149,2.564,2.564,2.564h79.532h0.001h34.562c1.22,0,2.272-0.861,2.514-2.058c0.09-0.45,8.851-41.11,54.134-48.164 c0.319,0.142,0.669,0.224,1.041,0.224c0.62,0,1.182-0.229,1.626-0.596c3.532-0.433,7.256-0.686,11.225-0.686h87.143 c1.415,0,2.564-1.149,2.564-2.564v-67.944C492.703,248.603,491.554,247.453,490.139,247.453z M220.925,252.582h74.355l0.047,114.095 h-74.403V252.582z M330.473,366.677h-30.017l-0.047-114.095h87.173v64.041C345.476,323.51,332.996,357.863,330.473,366.677z M487.575,315.399h-84.58c-3.601,0-7.02,0.191-10.285,0.531v-63.347h94.866V315.399z"></path></svg>