<!-- icon666.com - MILLIONS vector ICONS FREE --><svg version="1.1" id="Layer_1" xmlns="http://www.w3.org/2000/svg" xmlns:xlink="http://www.w3.org/1999/xlink" x="0px" y="0px" viewBox="0 0 512 512" style="enable-background:new 0 0 512 512;" xml:space="preserve"><path style="fill:#FFC339;" d="M177.352,512C94.039,512,9.614,473.773,9.614,408.911V306.945c0-10.343,8.386-18.729,18.729-18.729 s18.729,8.386,18.729,18.729c0,43.903,93.701,80.588,180.906,59.491c10.758-2.605,21.417,4.655,22.952,15.604 c3.946,28.156,18.665,53.21,41.448,70.548c10.559,8.035,9.63,24.243-1.792,31.015C257.059,503.476,216.651,512,177.352,512z"></path><g><path style="fill:#FFB61C;" d="M292.378,452.587c-22.783-17.338-37.503-42.392-41.448-70.548 c-1.536-10.949-12.194-18.208-22.952-15.604c-17.55,4.246-35.363,6.148-52.622,6.126v139.426c0.665,0.005,1.331,0.014,1.996,0.014 c39.3,0,79.708-8.523,113.235-28.398C302.009,476.828,302.937,460.622,292.378,452.587z"></path><path style="fill:#FFB61C;" d="M9.614,306.945V204.977c0-10.343,8.386-18.729,18.729-18.729s18.729,8.386,18.729,18.729 c0,32.653,55.083,65.555,128.282,65.555c72.963,0,128.281-32.782,128.281-65.555c0-10.343,8.386-18.729,18.729-18.729 s18.729,8.386,18.729,18.729v40.658c0,8.348-5.524,15.686-13.545,17.997c-24.798,7.143-46.218,23.025-60.312,44.722 c-14.143,21.769-19.934,47.932-16.307,73.67c1.345,9.544-4.773,18.549-14.142,20.817C132.443,428.091,9.614,383.964,9.614,306.945z "></path></g><path style="fill:#FFA800;" d="M322.363,186.248c-10.343,0-18.729,8.386-18.729,18.729c0,32.773-55.316,65.554-128.279,65.555 V409.96c20.489,0.03,41.304-2.249,61.431-7.118c9.368-2.266,15.486-11.272,14.142-20.817c-3.627-25.737,2.164-51.9,16.307-73.67 c14.095-21.697,35.514-37.58,60.312-44.722c8.021-2.311,13.545-9.65,13.545-17.997v-40.658 C341.092,194.633,332.707,186.248,322.363,186.248z"></path><path style="fill:#FFC339;" d="M175.355,307.992c-92.938,0-165.74-45.248-165.74-103.013V103.013 c0-10.343,8.386-18.729,18.729-18.729s18.729,8.386,18.729,18.729c0,32.734,55.24,65.554,128.282,65.554 c72.762,0,128.281-32.679,128.281-65.554c0-10.343,8.386-18.729,18.729-18.729s18.729,8.386,18.729,18.729v101.966 C341.095,262.744,268.293,307.992,175.355,307.992z"></path><path style="fill:#FFB61C;" d="M322.366,84.284c-10.343,0-18.729,8.386-18.729,18.729c0,32.874-55.519,65.554-128.281,65.554l0,0 v139.426l0,0c92.938,0,165.739-45.248,165.739-103.013V103.013C341.095,92.669,332.709,84.284,322.366,84.284z"></path><path style="fill:#FFD76E;" d="M357.403,511.924c-72.551,0-133.58-53.407-143.568-124.686 c-12.237-86.846,55.033-165.267,143.568-165.267c79.944,0,144.983,65.033,144.983,144.969 C502.386,446.885,437.347,511.924,357.403,511.924z"></path><g><path style="fill:#FFC339;" d="M357.403,221.97c-0.004,0-0.009,0-0.012,0v289.954c0.004,0,0.009,0,0.012,0 c79.944,0,144.983-65.039,144.983-144.983C502.386,287.003,437.347,221.97,357.403,221.97z"></path><path style="fill:#FFC339;" d="M357.404,446.285c-43.747,0-79.338-35.59-79.338-79.337s35.59-79.338,79.338-79.338 s79.338,35.591,79.338,79.338S401.151,446.285,357.404,446.285z M357.404,325.068c-23.093,0-41.88,18.788-41.88,41.88 c0,23.091,18.788,41.879,41.88,41.879c23.093,0,41.88-18.788,41.88-41.879C399.283,343.856,380.496,325.068,357.404,325.068z"></path></g><path style="fill:#FFD76E;" d="M175.355,206.024c-92.938,0-165.74-45.248-165.74-103.012C9.617,45.248,82.417,0,175.355,0 s165.738,45.248,165.738,103.013C341.095,160.777,268.293,206.024,175.355,206.024z"></path><path style="fill:#FFC339;" d="M175.355,0L175.355,0v206.024l0,0c92.938,0,165.738-45.248,165.738-103.012 C341.095,45.248,268.293,0,175.355,0z"></path><path style="fill:#FFB61C;" d="M357.404,287.61c-0.005,0-0.009,0-0.014,0v37.458c0.005,0,0.009,0,0.014,0 c23.093,0,41.88,18.788,41.88,41.88c0,23.091-18.788,41.879-41.88,41.879c-0.005,0-0.009,0-0.014,0v37.458c0.005,0,0.009,0,0.014,0 c43.747,0,79.338-35.59,79.338-79.337S401.151,287.61,357.404,287.61z"></path></svg>