<svg width="200" height="150" viewBox="0 0 200 150" fill="none" xmlns="http://www.w3.org/2000/svg">
<path d="M192.131 47.1583C192.162 47.7717 192.121 48.3958 191.983 49.0158L179.646 104.016C179.024 106.787 176.796 108.735 174.235 108.75L100.216 109.167C100.206 109.167 100.197 109.167 100.188 109.167H26.1682C23.5933 109.167 21.3495 107.212 20.7275 104.427L8.39103 49.2183C8.24897 48.5817 8.20785 47.94 8.24374 47.3108C3.4714 45.635 0 40.6575 0 34.7917C0 27.5542 5.28224 21.6667 11.7757 21.6667C18.2692 21.6667 23.5514 27.5542 23.5514 34.7917C23.5514 38.8675 21.8759 42.5142 19.2523 44.9233L34.6976 62.2683C38.6011 66.6525 44.0179 69.1658 49.5596 69.1658C56.1122 69.1658 62.3596 65.6975 66.2938 59.8867L91.677 22.4C89.5447 20.025 88.2243 16.7433 88.2243 13.125C88.2243 5.8875 93.5065 0 100 0C106.493 0 111.776 5.8875 111.776 13.125C111.776 16.635 110.526 19.8208 108.505 22.1783C108.511 22.1883 108.52 22.1967 108.526 22.2075L133.726 59.7975C137.658 65.6642 143.928 69.1667 150.499 69.1667C156.092 69.1667 161.351 66.7392 165.305 62.3308L180.848 45.0075C178.169 42.5992 176.449 38.9175 176.449 34.7917C176.449 27.5542 181.731 21.6667 188.224 21.6667C194.718 21.6667 200 27.5542 200 34.7917C200 40.5008 196.707 45.3567 192.131 47.1583ZM178.443 128.75C178.443 125.298 175.932 122.5 172.835 122.5H27.7884C24.6916 122.5 22.1809 125.298 22.1809 128.75V143.75C22.1809 147.202 24.6916 150 27.7884 150H172.835C175.932 150 178.443 147.202 178.443 143.75V128.75Z" fill="#FDE82A"/>
</svg>
