<!-- icon666.com - MILLIONS vector ICONS FREE --><svg version="1.1" id="Layer_1" xmlns="http://www.w3.org/2000/svg" xmlns:xlink="http://www.w3.org/1999/xlink" x="0px" y="0px" viewBox="0 0 511.999 511.999" style="enable-background:new 0 0 511.999 511.999;" xml:space="preserve"><g><polygon style="fill:#00C3F0;" points="255.889,213.738 147.986,263.043 147.986,462.946 255.889,462.946 "></polygon><polygon style="fill:#00C3F0;" points="363.79,213.738 255.889,263.043 255.889,462.946 363.79,462.946 "></polygon><polygon style="fill:#00C3F0;" points="471.664,213.738 363.762,263.043 363.762,462.946 471.664,462.946 "></polygon></g><g><path style="fill:#009FEF;" d="M185.425,468.408c-3.567,0-6.459-2.892-6.459-6.459v-18.379V270.887v-18.379 c0-0.18,0.025-0.355,0.039-0.532l-18.933,8.651c-2.3,1.051-3.775,3.346-3.775,5.874v18.379v172.684v18.379 c0,3.566,2.892,6.459,6.459,6.459h97.137c3.567,0,6.459-2.892,6.459-6.459v-7.535H185.425z"></path><path style="fill:#009FEF;" d="M401.201,468.408c-3.566,0-6.459-2.892-6.459-6.459v-18.379V270.887v-18.379 c0-0.18,0.025-0.355,0.039-0.532l-18.934,8.651c-2.299,1.051-3.774,3.346-3.774,5.874v18.379v172.684v18.379 c0,3.566,2.892,6.459,6.459,6.459h97.137c3.566,0,6.459-2.892,6.459-6.459v-7.535H401.201z"></path></g><path style="fill:#0BA0CE;" d="M293.327,468.408c-3.567,0-6.459-2.892-6.459-6.459v-18.379V270.887v-18.379 c0-0.18,0.024-0.355,0.039-0.532l-18.933,8.651c-2.3,1.051-3.775,3.346-3.775,5.874v18.379v172.684v18.379 c0,3.566,2.892,6.459,6.459,6.459h97.137c3.566,0,6.459-2.892,6.459-6.459v-7.535H293.327z"></path><polyline style="fill:#F99932;" points="147.986,201.289 147.986,161.856 40.085,161.856 40.085,462.946 147.986,462.946 147.986,228.921 "></polyline><rect x="48.396" y="137.245" style="fill:#EA801F;" width="21.481" height="339.572"></rect><g><path style="fill:#FFC850;" d="M376.755,497.381H25.291c-9.51,0-17.218-7.709-17.218-17.216c0-9.51,7.707-17.219,17.218-17.219 h461.417c9.509,0,17.218,7.708,17.218,17.219c0,9.507-7.708,17.216-17.218,17.216h-81.253"></path><path style="fill:#FFC850;" d="M165.235,154.957v-29.919c0-3.811-3.089-6.899-6.899-6.899h-32.011h-8.831H70.578h-8.831H29.736 c-3.809,0-6.899,3.088-6.899,6.899v29.919c0,3.811,3.089,6.899,6.899,6.899h32.011h8.831h46.914h8.831h32.011 C162.145,161.856,165.235,158.768,165.235,154.957z"></path></g><g><path style="fill:#F2B640;" d="M37.866,480.165c0-9.51,7.707-17.219,17.216-17.219h-21.48c-9.511,0-17.218,7.708-17.218,17.219 c0,9.507,7.706,17.216,17.218,17.216h21.48C45.573,497.381,37.866,489.672,37.866,480.165z"></path><path style="fill:#F2B640;" d="M52.63,154.957v-29.919c0-3.811,3.089-6.899,6.899-6.899H38.048c-3.809,0-6.899,3.088-6.899,6.899 v29.919c0,3.811,3.089,6.899,6.899,6.899h21.481C55.719,161.856,52.63,158.768,52.63,154.957z"></path></g><g><path style="fill:#9BDB3E;" d="M393.427,342.22v18.03v4.783v18.03c0,7.316,5.931,13.247,13.248,13.247h22.078 c7.314,0,13.245-5.93,13.245-13.247v-18.03v-4.783v-18.03H393.427z"></path><path style="fill:#9BDB3E;" d="M285.554,342.22v18.03v4.783v18.03c0,7.316,5.931,13.247,13.248,13.247h22.077 c7.315,0,13.247-5.93,13.247-13.247v-18.03v-4.783v-18.03H285.554z"></path><path style="fill:#9BDB3E;" d="M177.652,342.22v18.03v4.783v18.03c0,7.316,5.931,13.247,13.248,13.247h22.077 c7.315,0,13.247-5.93,13.247-13.247v-18.03v-4.783v-18.03H177.652z"></path><path style="fill:#9BDB3E;" d="M194.147,85.811c-27.28,3.953-53.302-6.565-70.336-25.733c10.896-23.212,32.866-40.684,60.14-44.635 c27.278-3.952,53.303,6.567,70.334,25.736C243.391,64.391,221.422,81.861,194.147,85.811z"></path><path style="fill:#9BDB3E;" d="M211.72,42.079c0,0-75.094-1.432-110.038,35.347"></path><path style="fill:#9BDB3E;" d="M318.891,83.831c-27.545,1.012-51.255,16.03-64.571,37.945 c14.885,20.881,39.635,34.12,67.175,33.111c27.546-1.01,51.257-16.029,64.571-37.944C371.182,96.061,346.432,82.82,318.891,83.831z "></path><path style="fill:#9BDB3E;" d="M344.032,124.801c0,0-73.618,14.891-114.599-15.014"></path></g><g><path style="fill:#86CE32;" d="M422.681,383.063V342.22c0-2.081,1.687-3.768,3.768-3.768h-21.481c-2.082,0-3.768,1.687-3.768,3.768 v40.843c0,9.381,7.633,17.014,17.015,17.014h21.481C430.314,400.077,422.681,392.444,422.681,383.063z"></path><path style="fill:#86CE32;" d="M314.808,383.063V342.22c0-2.081,1.687-3.768,3.768-3.768h-21.481c-2.082,0-3.768,1.687-3.768,3.768 v40.843c0,9.381,7.633,17.014,17.015,17.014h21.481C322.441,400.077,314.808,392.444,314.808,383.063z"></path><path style="fill:#86CE32;" d="M206.907,383.063V342.22c0-2.081,1.687-3.768,3.768-3.768h-21.481c-2.082,0-3.768,1.687-3.768,3.768 v40.843c0,9.381,7.633,17.014,17.015,17.014h21.481C214.54,400.077,206.907,392.444,206.907,383.063z"></path></g><g style="opacity:0.15;"><path style="fill:#F5F5F5;" d="M201.424,12.468c-3.833,0-7.722,0.282-11.557,0.835c-3.948,0.573-7.815,1.457-11.587,2.6 c-8.807,6.867-13.725,15.091-12.939,23.49c1.785,19.093,32.348,31.848,68.262,28.489c2.668-0.249,5.283-0.591,7.852-0.998 c7.306-6.366,13.491-14.067,18.125-22.816c1.316-2.484,0.874-5.534-1.094-7.543C243.51,21.237,222.711,12.468,201.424,12.468z"></path></g><g style="opacity:0.15;"><path style="fill:#F5F5F5;" d="M324.294,80.471c-6.399,0.236-12.686,1.251-18.741,2.967c-11.828,8.149-18.522,18.257-17.168,28.278 c2.639,19.525,34.777,31.294,71.786,26.293c5.304-0.717,10.409-1.747,15.273-3.03c5.643-4.727,10.667-10.245,14.869-16.461 c1.574-2.329,1.459-5.41-0.284-7.618C374.345,91.03,349.529,79.518,324.294,80.471z"></path></g><g><path style="fill:#231F20;" d="M441.996,308.022h-48.57c-4.46,0-8.073,3.614-8.073,8.073c0,4.46,3.614,8.073,8.073,8.073h48.57 c4.46,0,8.073-3.614,8.073-8.073C450.07,311.635,446.456,308.022,441.996,308.022z"></path><path style="fill:#231F20;" d="M486.708,454.873h-6.972V213.738c0-2.748-1.397-5.307-3.709-6.792 c-2.312-1.488-5.219-1.694-7.719-0.551l-96.445,44.07v-36.728c0-2.748-1.397-5.307-3.709-6.792 c-2.311-1.488-5.219-1.694-7.719-0.551l-96.473,44.083v-36.741c0-2.748-1.397-5.307-3.709-6.792 c-2.311-1.488-5.219-1.694-7.719-0.551l-96.473,44.083v-21.557c0-4.46-3.614-8.073-8.073-8.073c-4.46,0-8.073,3.614-8.073,8.073 v34.122v191.83H48.159V169.929h91.754v31.36c0,4.46,3.614,8.073,8.073,8.073c4.46,0,8.073-3.614,8.073-8.073v-31.36h2.276 c8.256,0,14.972-6.716,14.972-14.972v-29.919c0-8.256-6.716-14.972-14.972-14.972H29.736c-8.256,0-14.972,6.716-14.972,14.972 v29.919c0,8.256,6.716,14.972,14.972,14.972h2.276v284.944h-6.721C11.346,454.873,0,466.219,0,480.165 c0,13.945,11.346,25.29,25.291,25.29h351.464c4.46,0,8.073-3.614,8.073-8.073c0-4.46-3.614-8.073-8.073-8.073H25.291 c-5.043,0-9.144-4.102-9.144-9.143c0-5.043,4.102-9.145,9.144-9.145h14.794h107.901h107.902h107.874h0.028h107.874h15.045 c5.043,0,9.144,4.103,9.144,9.145c0,5.042-4.102,9.143-9.144,9.143h-81.254c-4.46,0-8.073,3.614-8.073,8.073 c0,4.46,3.614,8.073,8.073,8.073h81.254c13.945,0,25.291-11.345,25.291-25.29C512,466.219,500.653,454.873,486.708,454.873z M30.911,126.212h126.251v27.571h-9.174H40.085h-9.174V126.212z M156.06,268.23l91.755-41.927v36.741v191.83H156.06V268.23z M263.962,268.23l91.755-41.927v36.349c-0.006,0.131-0.028,0.259-0.028,0.392v191.83h-91.727V268.23z M371.863,454.873V268.216 l91.727-41.914v228.571H371.863z"></path><path style="fill:#231F20;" d="M285.554,324.168h48.57c4.46,0,8.073-3.614,8.073-8.073c0-4.46-3.614-8.073-8.073-8.073h-48.57 c-4.46,0-8.073,3.614-8.073,8.073C277.481,320.555,281.095,324.168,285.554,324.168z"></path><path style="fill:#231F20;" d="M226.222,308.022h-48.57c-4.46,0-8.073,3.614-8.073,8.073c0,4.46,3.614,8.073,8.073,8.073h48.57 c4.46,0,8.073-3.614,8.073-8.073C234.295,311.635,230.682,308.022,226.222,308.022z"></path><path style="fill:#231F20;" d="M441.996,334.147h-48.57c-4.46,0-8.073,3.614-8.073,8.073v40.843c0,11.756,9.564,21.32,21.321,21.32 h22.078c11.755,0,21.319-9.564,21.319-21.32V342.22C450.07,337.76,446.456,334.147,441.996,334.147z M433.923,383.063 c0,2.851-2.32,5.173-5.172,5.173h-22.078c-2.853,0-5.174-2.321-5.174-5.173v-32.77h32.423v32.77H433.923z"></path><path style="fill:#231F20;" d="M334.124,334.147h-48.57c-4.46,0-8.073,3.614-8.073,8.073v40.843c0,11.756,9.564,21.32,21.321,21.32 h22.077c11.756,0,21.32-9.564,21.32-21.32V342.22C342.197,337.76,338.583,334.147,334.124,334.147z M326.05,383.063 c0,2.851-2.321,5.173-5.173,5.173h-22.077c-2.853,0-5.174-2.321-5.174-5.173v-32.77h32.423v32.77H326.05z"></path><path style="fill:#231F20;" d="M226.222,334.147h-48.57c-4.46,0-8.073,3.614-8.073,8.073v40.843c0,11.756,9.564,21.32,21.321,21.32 h22.077c11.756,0,21.32-9.564,21.32-21.32V342.22C234.295,337.76,230.682,334.147,226.222,334.147z M218.149,383.063 c0,2.851-2.321,5.173-5.173,5.173h-22.077c-2.853,0-5.174-2.321-5.174-5.173v-32.77h32.423v32.77H218.149z"></path><path style="fill:#231F20;" d="M101.681,85.499c2.135,0,4.267-0.842,5.854-2.512c4.475-4.71,9.716-8.745,15.421-12.202 c16.108,15.282,37.508,23.925,59.784,23.925c4.175,0,8.404-0.306,12.564-0.909c29.025-4.202,53.806-22.592,66.289-49.192 c1.371-2.923,0.872-6.38-1.273-8.792c-16.528-18.603-40.208-29.273-64.967-29.273c-4.174,0-8.4,0.306-12.56,0.909 C154.169,11.6,129.68,29.55,117.034,55.557c-7.804,4.456-15.046,9.826-21.207,16.308c-3.071,3.233-2.94,8.342,0.292,11.415 C97.683,84.763,99.683,85.499,101.681,85.499z M185.109,23.432c3.396-0.492,6.843-0.742,10.245-0.742 c18.333,0,35.947,7.198,49.117,19.912c-10.771,19.04-29.653,32.058-51.48,35.219c-3.397,0.493-6.845,0.742-10.249,0.742 c-16.099,0-31.642-5.553-44.111-15.518c33.22-13.359,72.217-12.915,72.937-12.894c4.454,0.102,8.141-3.461,8.226-7.918 c0.084-4.458-3.461-8.141-7.918-8.226c-2.066-0.033-34.321-0.456-66.888,9.663C155.659,32.888,169.635,25.673,185.109,23.432z"></path><path style="fill:#231F20;" d="M250.939,112.256c-6.004-2.339-11.672-5.287-16.746-8.99c-3.601-2.624-8.65-1.84-11.28,1.763 c-2.628,3.602-1.839,8.651,1.763,11.28c7.541,5.503,16.024,9.603,24.907,12.625c16.423,21.392,41.974,34.079,68.974,34.08 c0.002,0,0.004,0,0.006,0c1.074,0,2.147-0.019,3.229-0.059c29.311-1.075,55.919-16.708,71.176-41.82 c1.676-2.759,1.548-6.251-0.326-8.878c-16.314-22.888-42.785-36.552-70.807-36.552c-1.076,0-2.154,0.019-3.239,0.059 C291.419,76.761,266.574,90.279,250.939,112.256z M319.187,91.899c21.998-0.819,43.002,8.706,56.967,25.409 c-12.745,17.781-32.912,28.702-54.955,29.51c-0.884,0.032-1.761,0.048-2.637,0.048c-0.002,0-0.004,0-0.006,0 c-13.778,0-27.083-4.083-38.401-11.406c7.638,0.836,15.137,1.163,22.175,1.163c23.427,0,41.775-3.601,43.304-3.91 c4.368-0.884,7.193-5.14,6.31-9.509c-0.881-4.368-5.139-7.196-9.507-6.318c-0.524,0.104-39.479,7.709-74.854,0.246 C280.366,101.902,298.98,92.64,319.187,91.899z"></path></g></svg>