<svg width="150" height="150" viewBox="0 0 150 150" fill="none" xmlns="http://www.w3.org/2000/svg">
<path d="M137.507 118.541L93 74.0348V15.9591H100.719C105.119 15.9591 108.698 12.3793 108.698 7.97954C108.698 3.57946 105.119 0 100.719 0H49.2817C44.8816 0 41.3021 3.57946 41.3021 7.97924C41.3021 12.3793 44.8816 15.9588 49.2817 15.9588H57.0003V74.0348L12.4931 118.542C7.12284 123.912 5.592 131.607 8.49856 138.624C11.4051 145.641 17.9288 150 25.5237 150H124.476C132.071 150 138.595 145.641 141.501 138.624C144.408 131.607 142.877 123.912 137.507 118.541ZM136.088 136.382C134.534 140.133 130.668 144.141 124.476 144.141H25.5237C19.3319 144.141 15.4654 140.133 13.9117 136.382C12.358 132.631 12.2578 127.063 16.6363 122.685L62.0017 77.32C62.551 76.7705 62.8597 76.0254 62.8597 75.2483V13.0294C62.8597 11.4113 61.5481 10.0997 59.93 10.0997H49.2817C48.1126 10.0997 47.1615 9.14864 47.1615 7.97954C47.1615 6.81044 48.1126 5.85938 49.2817 5.85938H100.718C101.887 5.85938 102.839 6.81014 102.839 7.97924C102.839 9.14834 101.888 10.0994 100.719 10.0994H90.0703C88.4522 10.0994 87.1406 11.411 87.1406 13.0291V75.2479C87.1406 76.0251 87.4493 76.7702 87.9986 77.3197L133.364 122.685C137.742 127.063 137.642 132.631 136.088 136.382Z" fill="black"/>
<path d="M59.3052 91.3856L52.1275 98.5633C50.9834 99.7074 50.9834 101.562 52.1275 102.706C52.6996 103.278 53.4496 103.564 54.1993 103.564C54.9489 103.564 55.6989 103.278 56.2707 102.706L63.4484 95.5288C64.5926 94.3846 64.5926 92.5297 63.4484 91.3856C62.3043 90.2418 60.4494 90.2418 59.3052 91.3856Z" fill="black"/>
<path d="M43.0454 107.645L23.1235 127.567C21.9794 128.711 21.9794 130.566 23.1235 131.71C23.6956 132.282 24.4456 132.568 25.1953 132.568C25.945 132.568 26.695 132.282 27.2667 131.71L47.1886 111.789C48.3327 110.644 48.3327 108.789 47.1886 107.645C46.0445 106.501 44.1895 106.501 43.0454 107.645Z" fill="black"/>
</svg>
