<!-- icon666.com - MILLIONS vector ICONS FREE --><svg xmlns="http://www.w3.org/2000/svg" xmlns:xlink="http://www.w3.org/1999/xlink" version="1.1" id="Layer_1" x="0px" y="0px" viewBox="0 0 512 512" style="enable-background:new 0 0 512 512;" xml:space="preserve"><g><g><rect x="67.176" y="35.398" style="fill:#FFE380;" width="67.851" height="153.956"></rect><polygon style="fill:#42C3E2;" points="255.919,52.275 427.096,189.355 427.096,458.692 84.741,458.692 84.741,189.355 "></polygon><path style="fill:#00A6C8;" d="M84.741,189.355v75.291c3.044-1.383,5.938-3.105,8.6-5.158l162.578-125.356l162.576,125.356 c2.662,2.053,5.556,3.775,8.601,5.158v-75.291L255.919,52.275C255.919,52.275,84.741,189.355,84.741,189.355z"></path><g><g><g><path style="fill:#DC5A64;" d="M480.98,178.452L278.002,21.943c-13.014-10.033-31.154-10.033-44.166,0L30.858,178.452 c-6.024,4.645-7.142,13.294-2.497,19.318l27.345,35.464c4.645,6.024,13.294,7.142,19.318,2.497L255.919,96.249L436.814,235.73 c6.024,4.645,14.673,3.527,19.318-2.497l27.345-35.464C488.122,191.745,487.004,183.096,480.98,178.452z"></path></g></g></g><rect x="192.201" y="268.865" style="fill:#DC5A64;" width="127.436" height="205.285"></rect><path style="fill:#FFE380;" d="M440.882,443.799H70.956c-6.778,0-12.273,5.495-12.273,12.273v36.155 c0,6.778,5.495,12.273,12.273,12.273h369.926c6.778,0,12.273-5.495,12.273-12.273v-36.155 C453.155,449.294,447.66,443.799,440.882,443.799z"></path><rect x="67.176" y="35.399" style="fill:#E8B921;" width="67.851" height="46.876"></rect><path style="fill:#DC5A64;" d="M142.005,7.5H60.198c-5.138,0-9.302,4.165-9.302,9.302v26.17c0,5.138,4.165,9.302,9.302,9.302 h81.806c5.138,0,9.302-4.165,9.302-9.302v-26.17C151.307,11.665,147.142,7.5,142.005,7.5z"></path></g><g><circle cx="286.913" cy="361.175" r="11.366"></circle><path d="M183.296,234.945c4.142,0,7.5-3.358,7.5-7.5v-13.143c0-4.142-3.358-7.5-7.5-7.5s-7.5,3.358-7.5,7.5v13.143 C175.796,231.586,179.154,234.945,183.296,234.945z"></path><path d="M328.534,234.945c4.142,0,7.5-3.358,7.5-7.5v-13.143c0-4.142-3.358-7.5-7.5-7.5s-7.5,3.358-7.5,7.5v13.143 C321.034,231.586,324.392,234.945,328.534,234.945z"></path><path d="M255.915,241.96c9.149,0,17.74-3.825,23.57-10.494c2.727-3.119,2.408-7.857-0.71-10.583 c-3.118-2.726-7.856-2.408-10.583,0.711c-2.981,3.41-7.456,5.366-12.277,5.366c-4.821,0-9.296-1.956-12.277-5.366 c-2.726-3.119-7.464-3.436-10.583-0.71s-3.437,7.464-0.71,10.583C238.175,238.135,246.766,241.96,255.915,241.96z"></path><path d="M445.177,246.099c6.576-0.001,12.873-3.076,16.891-8.287c0,0,27.332-35.446,27.345-35.463 c7.087-9.19,5.315-22.764-3.857-29.837l-52.688-40.625c-3.28-2.529-7.989-1.92-10.519,1.36c-2.529,3.28-1.92,7.99,1.36,10.519 c0,0,52.645,40.592,52.688,40.625c2.709,2.089,3.225,6.092,1.137,8.799c0,0-27.311,35.419-27.345,35.463 c-2.09,2.71-6.085,3.23-8.798,1.138L260.495,90.309c-2.698-2.081-6.461-2.081-9.159,0c0,0-180.892,139.479-180.896,139.481 c-2.718,2.096-6.704,1.58-8.798-1.137c0,0-27.336-35.453-27.345-35.464c-2.016-2.615-1.649-6.649,1.137-8.798L238.412,27.882 c10.306-7.946,24.701-7.945,35.006,0l126.936,97.875c3.28,2.529,7.99,1.921,10.519-1.36c2.529-3.28,1.92-7.99-1.36-10.519 L282.577,16.003c-15.699-12.104-37.627-12.104-53.324,0l-86.73,66.874V59.749c9.022-0.279,16.28-7.688,16.28-16.776v-26.17 C158.803,7.538,151.265,0,142.001,0h-37.334c-4.142,0-7.5,3.358-7.5,7.5s3.358,7.5,7.5,7.5h37.334 c0.994,0,1.802,0.809,1.802,1.803v26.17c0,0.994-0.809,1.802-1.802,1.802H60.195c-0.994,0-1.802-0.809-1.802-1.802v-26.17 c0-0.994,0.809-1.803,1.802-1.803h14.472c4.142,0,7.5-3.358,7.5-7.5S78.808,0,74.666,0H60.195C50.93,0,43.392,7.538,43.392,16.803 v26.17c0,9.088,7.258,16.497,16.28,16.776v87.012c0,0-33.368,25.729-33.397,25.751c-9.172,7.072-10.925,20.671-3.857,29.836 c0,0,27.316,35.427,27.345,35.464c6.412,8.316,18.395,10.683,27.475,5.416v193.07h-6.286c-10.903,0-19.773,8.871-19.773,19.773 v36.155c0,10.903,8.87,19.773,19.773,19.773h369.926c10.903,0,19.773-8.871,19.773-19.773v-36.155 c0-10.903-8.87-19.773-19.773-19.773h-6.286V243.235C437.82,245.107,441.445,246.1,445.177,246.099z M127.523,59.775v34.668 l-52.851,40.752v-75.42H127.523z M419.593,231.924v204.374h-92.459V268.865c0-4.142-3.358-7.5-7.5-7.5H192.197 c-4.142,0-7.5,3.358-7.5,7.5v167.434h-92.46V231.924l163.678-126.205L419.593,231.924z M199.697,436.298V276.365h112.436v159.934 H199.697z M445.652,456.072v36.155c0,2.632-2.141,4.773-4.773,4.773H70.952c-2.632,0-4.773-2.142-4.773-4.773v-36.155 c0-2.632,2.142-4.773,4.773-4.773h369.926C443.51,451.298,445.652,453.44,445.652,456.072z"></path></g></g></svg>