<svg width="150" height="150" viewBox="0 0 150 150" fill="none" xmlns="http://www.w3.org/2000/svg">
<path d="M42.0407 26.7036C49.4147 26.7036 55.3925 20.7258 55.3925 13.3518C55.3925 5.9778 49.4147 0 42.0407 0C34.6667 0 28.6889 5.9778 28.6889 13.3518C28.6889 20.7258 34.6667 26.7036 42.0407 26.7036Z" fill="black"/>
<path d="M144.192 45.5978C140.994 44.2491 137.57 42.4702 134.807 40.5324C133.565 39.6662 133.064 40.0141 133.587 41.4313L134.506 43.9312L123.796 43.9943C121.721 4.9751 86.3036 1.31316 85.9361 1.2802C83.6885 1.08298 81.6739 2.74124 81.471 5.00548C81.268 7.26398 82.9346 9.26766 85.1959 9.4706C86.3964 9.57752 113.638 12.4171 115.559 44.041L93.3838 44.1726C92.3421 40.8231 89.2558 38.3751 85.5663 38.3751H57.0428C55.7847 35.4421 52.8738 33.3863 49.483 33.3863H35.095L16.6612 24.1734C12.5962 22.1451 7.65668 23.787 5.62835 27.8519C3.59745 31.9169 5.24195 36.851 9.30404 38.8848L26.3783 47.4177V79.8554L9.98111 139.598C8.77776 143.978 11.3544 148.501 15.7344 149.707C16.4637 149.904 17.1955 150 17.9164 150C21.5264 150 24.8378 147.602 25.8411 143.95L40.684 89.8718H43.247L56.9989 143.805C57.9474 147.525 61.2915 150 64.9617 150C65.6333 150 66.3184 149.921 66.9981 149.743C71.3976 148.624 74.0565 144.142 72.9351 139.743L57.7058 80.0091V54.8244H85.566C89.0253 54.8244 91.972 52.6863 93.1891 49.6576C98.0025 49.6301 106.99 49.5782 115.57 49.526C114.438 77.3126 89.494 85.6096 88.4167 85.9493C86.2485 86.6183 85.0369 88.9261 85.7085 91.0943C86.2568 92.8566 87.8796 93.986 89.6339 93.986C90.0366 93.986 90.4479 93.9284 90.8535 93.8052C91.1797 93.7066 122.719 83.4904 123.842 49.4793C128.365 49.4518 132.233 49.43 134.538 49.4162L133.644 51.9215C133.137 53.3496 133.647 53.6896 134.878 52.8041C137.619 50.8389 141.021 49.0241 144.203 47.6318C145.593 47.0259 145.588 46.1871 144.192 45.5978Z" fill="black"/>
</svg>
