<!-- icon666.com - MILLIONS vector ICONS FREE --><svg id="_x33_0" enable-background="new 0 0 64 64" viewBox="0 0 64 64" xmlns="http://www.w3.org/2000/svg"><g><g><g><path d="m46 52h4v6h-4z" fill="#d3a06c"></path></g><g><path d="m30 52h4v6h-4z" fill="#d3a06c"></path></g><g><path d="m14 52h4v6h-4z" fill="#d3a06c"></path></g><g><path d="m62 50v12h-12v-4-6-2c0-1.89.88-3.58 2.24-4.68 1.03-.83 2.33-1.32 3.76-1.32 1.66 0 3.16.67 4.24 1.76 1.09 1.08 1.76 2.58 1.76 4.24z" fill="#b27946"></path></g><g><path d="m46 50v2 6 4h-12v-4-6-2c0-3.31 2.69-6 6-6 1.66 0 3.16.67 4.24 1.76 1.09 1.08 1.76 2.58 1.76 4.24z" fill="#b27946"></path></g><g><path d="m30 52v6 4h-12v-4-6-2c0-1.7.71-3.24 1.86-4.34 1.07-1.03 2.53-1.66 4.14-1.66 1.66 0 3.16.67 4.24 1.76 1.09 1.08 1.76 2.58 1.76 4.24z" fill="#b27946"></path></g><g><path d="m14 58v4h-12v-12c0-3.31 2.69-6 6-6 1.66 0 3.16.67 4.24 1.76 1.09 1.08 1.76 2.58 1.76 4.24v2z" fill="#b27946"></path></g><g><path d="m22 34.54v.46c0 .55-.45 1-1 1h-3-3c-.55 0-1-.45-1-1v-3c0-.73.19-1.41.54-2h3.46c1.06 0 2.05-.27 2.91-.75.67.72 1.09 1.69 1.09 2.75z" fill="#fcd770"></path></g><g><path d="m45.59 38h-10.59c-2.76 0-5 2.24-5 5v7c0-1.66-.67-3.16-1.76-4.24-1.08-1.09-2.58-1.76-4.24-1.76v-6c0-1.48-.8-2.77-2-3.46v-2.54c0-1.06-.42-2.03-1.09-2.75 1.27-.71 2.26-1.87 2.74-3.25h.01c.22-.63.34-1.3.34-2 0-1.11-.3-2.15-.83-3.04l.16-.96h8.67c.55 0 1.05.22 1.41.59.37.36.59.86.59 1.41 0 1.1-.9 2-2 2h-2c-.55 0-1.05.22-1.41.59-.37.36-.59.86-.59 1.41 0 1.1.9 2 2 2h2c.55 0 1.05.22 1.41.59.37.36.59.86.59 1.41 0 1.1.9 2 2 2h2c1.1 0 2-.9 2-2v-4c0-.55.22-1.05.59-1.41.36-.37.86-.59 1.41-.59 1.1 0 2-.9 2-2v-1.81c2.74.48 5.16 1.89 6.93 3.88 1.91 2.15 3.07 4.97 3.07 8.07 0 .57-.04 1.15-.12 1.71l-1.64 11.47c-1.36 1.1-2.24 2.79-2.24 4.68v2h-4v-2-9.84c0-.75-.14-1.47-.4-2.16z" fill="#ccd1d9"></path></g><g><path d="m22 34.54c1.2.69 2 1.98 2 3.46v6c-1.61 0-3.07.63-4.14 1.66v-.02c-1.23-3.06-1.86-6.34-1.86-9.64h3c.55 0 1-.45 1-1z" fill="#838f9b"></path></g><g><path d="m44 20.19v1.81c0 1.1-.9 2-2 2-.55 0-1.05.22-1.41.59-.37.36-.59.86-.59 1.41v4c0 1.1-.9 2-2 2h-2c-1.1 0-2-.9-2-2 0-.55-.22-1.05-.59-1.41-.36-.37-.86-.59-1.41-.59h-2c-1.1 0-2-.9-2-2 0-.55.22-1.05.59-1.41.36-.37.86-.59 1.41-.59h2c1.1 0 2-.9 2-2 0-.55-.22-1.05-.59-1.41-.36-.37-.86-.59-1.41-.59h9.86c.73 0 1.45.06 2.14.19z" fill="#838f9b"></path></g><g><path d="m27.77 12.23v.01l-1.27-.24c-.93 0-1.83.36-2.5 1 0-1.51-.67-2.86-1.72-3.77l.69-.41c1.93-1.16 3.28-3.08 3.72-5.29l.31-1.53.19.12c1.75 1.18 2.81 3.15 2.81 5.26 0 1.68-.67 3.29-1.85 4.47z" fill="#969faa"></path></g><g><path d="m5.31 3.53c.44 2.21 1.79 4.13 3.72 5.29l.69.41c-.09.07-.18.15-.26.23-.9.91-1.46 2.16-1.46 3.54-.67-.64-1.57-1-2.5-1l-1.27.24v-.01l-.38-.38c-1.18-1.18-1.85-2.79-1.85-4.47 0-2.11 1.06-4.08 2.81-5.26l.19-.12z" fill="#969faa"></path></g><g><path d="m26.5 12 1.27.24c1.17.7 1.23.76 1.29.82l.94.94-.94.94c-.68.68-1.6 1.06-2.56 1.06s-1.87-.38-2.55-1.05h-.01l.06-1.95c.67-.64 1.57-1 2.5-1z" fill="#aab2bd"></path></g><g><path d="m8 13c0 .65.02 1.3.06 1.95h-.01c-.68.67-1.59 1.05-2.55 1.05s-1.88-.38-2.56-1.06l-.94-.94.94-.94c.06-.06.12-.12 1.29-.82l1.27-.24c.93 0 1.83.36 2.5 1z" fill="#aab2bd"></path></g><g><path d="m24 13-.06 1.95c-.22 2.63-.31 3.32-.43 4.01l-.18 1.04-.16.96-.93-1.2c-1.08-1.09-2.58-1.76-4.24-1.76h-4c-2.2 0-4.13 1.19-5.17 2.96l-.34-2c-.22-1.33-.37-2.67-.43-4.01-.04-.65-.06-1.3-.06-1.95 0-1.38.56-2.63 1.46-3.54.08-.08.17-.16.26-.23.88-.77 2.03-1.23 3.28-1.23h6c1.25 0 2.4.46 3.28 1.23 1.05.91 1.72 2.26 1.72 3.77z" fill="#ccd1d9"></path></g><g><path d="m23.17 20.96-.93-1.2c-1.08-1.09-2.58-1.76-4.24-1.76h-4c-2.2 0-4.13 1.19-5.17 2.96-.53.89-.83 1.93-.83 3.04 0 .7.12 1.37.34 2h.01c.29.85.78 1.62 1.41 2.24 1.08 1.09 2.58 1.76 4.24 1.76h.54 3.46c1.06 0 2.05-.27 2.91-.75 1.27-.71 2.26-1.87 2.74-3.25h.01c.22-.63.34-1.3.34-2 0-1.11-.3-2.15-.83-3.04z" fill="#e6e9ed"></path></g></g><g><circle cx="14" cy="22" r="1"></circle><circle cx="12" cy="14" r="1"></circle><circle cx="20" cy="14" r="1"></circle><circle cx="18" cy="22" r="1"></circle><path d="m60 37c1.654 0 3-1.346 3-3v-5h-2v5c0 .551-.449 1-1 1s-1-.449-1-1v-8.464c0-2.501-2.035-4.536-4.536-4.536-1.211 0-2.351.472-3.207 1.329l-.326.326c-2.361-2.258-5.552-3.655-9.068-3.655h-17.352c.126-.77.222-1.546.299-2.325.532.209 1.102.325 1.69.325 1.234 0 2.395-.48 3.268-1.354l1.646-1.646-1.646-1.646c-.129-.129-.276-.231-.417-.343 1.068-1.303 1.649-2.921 1.649-4.629 0-2.453-1.218-4.73-3.259-6.09l-.186-.124c-.277-.186-.63-.22-.938-.092-.308.127-.532.4-.598.728l-.306 1.53c-.386 1.93-1.575 3.617-3.263 4.63l-.101.061c-.957-.647-2.11-1.025-3.349-1.025h-6c-1.239 0-2.392.378-3.349 1.024l-.102-.061c-1.688-1.013-2.877-2.7-3.263-4.63l-.306-1.529c-.065-.327-.29-.6-.598-.728-.31-.128-.661-.094-.938.092l-.185.124c-2.041 1.36-3.259 3.637-3.259 6.09 0 1.707.581 3.325 1.649 4.629-.141.112-.288.214-.417.343l-1.646 1.646 1.646 1.646c.873.874 2.034 1.354 3.268 1.354.588 0 1.158-.116 1.69-.325.081.82.182 1.638.317 2.448l.278 1.669c-.499.963-.785 2.052-.785 3.208 0 3.563 2.677 6.506 6.124 6.939-.076.348-.124.702-.124 1.061v3c0 1.103.897 2 2 2h2.024c.106 2.88.671 5.701 1.688 8.428-1.064 1.228-1.712 2.824-1.712 4.572v1h-2v-1c0-3.86-3.14-7-7-7s-7 3.14-7 7v13h62v-13c0-3.86-3.14-7-7-7-.876 0-1.711.169-2.485.464l1.353-9.468c.088-.612.132-1.237.132-1.859 0-3.007-1.027-5.773-2.733-7.99l.405-.405c.478-.478 1.115-.742 1.792-.742 1.398 0 2.536 1.138 2.536 2.536v8.464c0 1.654 1.346 3 3 3zm-17-15.942v.942c0 .551-.449 1-1 1-1.654 0-3 1.346-3 3v4c0 .551-.449 1-1 1h-2c-.551 0-1-.449-1-1 0-1.654-1.346-3-3-3h-2c-.551 0-1-.449-1-1s.449-1 1-1h2c1.654 0 3-1.346 3-3 0-.352-.072-.686-.184-1h7.047c.384 0 .763.02 1.137.058zm-34 2.942c0-2.757 2.243-5 5-5h4c2.757 0 5 2.243 5 5 0 .342-.035.677-.101 1h-13.798c-.066-.323-.101-.658-.101-1zm19.354-9.768c-.89.891-2.373.973-3.384.26.013-.333.016-.666.021-.998 1.009-.7 2.479-.611 3.364.274l.231.232zm-.703-10.392c.86.963 1.349 2.217 1.349 3.542 0 1.405-.545 2.724-1.528 3.725-.317-.067-.641-.107-.972-.107-.604 0-1.193.118-1.739.34-.199-.691-.521-1.329-.938-1.893 1.951-1.297 3.337-3.309 3.828-5.607zm-8.651 5.16c2.206 0 4 1.794 4 4 0 1.896-.157 3.807-.463 5.68-1.223-1.045-2.806-1.68-4.537-1.68h-4c-1.731 0-3.314.635-4.537 1.68-.306-1.873-.463-3.784-.463-5.68 0-2.206 1.794-4 4-4zm-16-1.618c0-1.325.489-2.579 1.349-3.542.491 2.298 1.877 4.31 3.827 5.607-.417.565-.738 1.203-.938 1.893-.546-.222-1.134-.34-1.738-.34-.331 0-.655.04-.972.108-.983-1.001-1.528-2.321-1.528-3.726zm.646 6.85-.232-.232.232-.232c.883-.884 2.353-.974 3.364-.273.004.333.007.665.021.998-1.011.713-2.493.631-3.385-.261zm6.38 12.768h11.949c-.914 1.207-2.348 2-3.974 2h-4c-1.628 0-3.062-.793-3.975-2zm34.823 12c.09.378.151.762.151 1.155v4.955c-1.272-1.3-3.042-2.11-5-2.11-3.86 0-7 3.14-7 7v1h-2v-8c0-2.206 1.794-4 4-4zm2.151 14h2v4h-2zm-2 8h-10v-11c0-2.757 2.243-5 5-5s5 2.243 5 5zm-14-8h2v4h-2zm0 6h2v2h-2zm-2 2h-10v-11c0-2.757 2.243-5 5-5s5 2.243 5 5zm-14-29c0-.345.08-.678.194-1h2.806c.914 0 1.786-.181 2.588-.502.263.454.412.967.412 1.502v3h-6zm6 5c.586 0 1.108-.257 1.474-.66.327.488.526 1.057.526 1.66v5.08c-.957.138-1.851.469-2.643.954-.776-2.275-1.214-4.63-1.31-7.034zm-4 16v4h-2v-4zm-4 8h-10v-11c0-2.757 2.243-5 5-5s5 2.243 5 5zm2-2h2v2h-2zm32 2v-2h2v2zm14-11v11h-10v-11c0-2.757 2.243-5 5-5s5 2.243 5 5zm-8.112-16.288-1.588 11.115c-1.409 1.282-2.3 3.123-2.3 5.173v1h-2v-10.845c0-.895-.168-1.77-.5-2.599l-1.1-2.749c-.266-.664-.4-1.362-.4-2.077 0-1.494.582-2.898 1.638-3.954l.069-.069-1.483-1.345c-1.434 1.434-2.224 3.341-2.224 5.368 0 .97.183 1.918.543 2.819l.58 1.45h-9.123c-3.309 0-6 2.691-6 6v2.11c-1.051-1.074-2.443-1.806-4-2.031v-5.078c0-1.578-.755-3.058-2-3.995v-2.005c0-.891-.248-1.744-.686-2.499 1.632-1.282 2.686-3.269 2.686-5.501 0-1.075-.25-2.089-.685-3h7.685c.551 0 1 .449 1 1s-.449 1-1 1h-2c-1.654 0-3 1.346-3 3s1.346 3 3 3h2c.551 0 1 .449 1 1 0 1.654 1.346 3 3 3h2c1.654 0 3-1.346 3-3v-4c0-.551.449-1 1-1 1.654 0 3-1.346 3-3v-.543c4.617 1.359 8 5.629 8 10.68 0 .527-.038 1.057-.112 1.575z"></path></g></g></svg>