<!-- icon666.com - MILLIONS vector ICONS FREE --><svg version="1.1" id="Capa_1" xmlns="http://www.w3.org/2000/svg" xmlns:xlink="http://www.w3.org/1999/xlink" x="0px" y="0px" viewBox="0 0 460 460" style="enable-background:new 0 0 460 460;" xml:space="preserve"><g id="XMLID_1036_"><rect id="XMLID_1037_" x="170" y="190" style="fill:#606060;" width="60" height="30"></rect><rect id="XMLID_1038_" x="110" y="190" style="fill:#606060;" width="30" height="30"></rect><path id="XMLID_1039_" style="fill:#606060;" d="M230,160V50H110v110H230z M140,80h75v50h-75V80z"></path><rect id="XMLID_1042_" x="230" y="190" style="fill:#404040;" width="60" height="30"></rect><rect id="XMLID_1043_" x="320" y="190" style="fill:#404040;" width="30" height="30"></rect><path id="XMLID_1044_" style="fill:#404040;" d="M350,160V50H230v110H350z M245,80h75v50h-75V80z"></path><rect id="XMLID_1047_" x="110" y="160" style="fill:#E8E8E8;" width="30" height="30"></rect><rect id="XMLID_1048_" x="170" y="160" style="fill:#E8E8E8;" width="60" height="30"></rect><rect id="XMLID_1049_" x="230" y="160" style="fill:#BFBFBF;" width="60" height="30"></rect><rect id="XMLID_1050_" x="320" y="160" style="fill:#BFBFBF;" width="30" height="30"></rect><path id="XMLID_1051_" style="fill:#FFCA2B;" d="M80,50H25C11.193,50,0,61.193,0,75v305h80V50z"></path><path id="XMLID_1052_" style="fill:#FFAA19;" d="M435,50h-55v330h80V75C460,61.193,448.807,50,435,50z"></path><rect id="XMLID_1053_" x="80" y="260" style="fill:#8F8F8F;" width="30" height="150"></rect><rect id="XMLID_1054_" x="80" y="50" style="fill:#8F8F8F;" width="30" height="180"></rect><rect id="XMLID_1055_" x="350" y="50" style="fill:#606060;" width="30" height="180"></rect><rect id="XMLID_1056_" x="350" y="260" style="fill:#606060;" width="30" height="150"></rect><rect id="XMLID_1057_" x="140" y="320" style="fill:#BFBFBF;" width="30" height="60"></rect><circle id="XMLID_1058_" style="fill:#606060;" cx="155" cy="395" r="15"></circle><rect id="XMLID_1059_" x="290" y="320" style="fill:#A3A3A3;" width="30" height="60"></rect><circle id="XMLID_1060_" style="fill:#404040;" cx="305" cy="395" r="15"></circle><rect id="XMLID_1061_" x="80" y="230" style="fill:#404040;" width="30" height="30"></rect><rect id="XMLID_1062_" x="350" y="230" style="fill:#404040;" width="30" height="30"></rect><rect id="XMLID_1063_" x="140" y="160" style="fill:#404040;" width="30" height="60"></rect><rect id="XMLID_1064_" x="290" y="160" style="fill:#606060;" width="30" height="60"></rect><polygon id="XMLID_1065_" style="fill:#E8E8E8;" points="350,220 110,220 110,320 320,320 320,290 350,290 "></polygon><polygon id="XMLID_1066_" style="fill:#BFBFBF;" points="320,320 350,290 320,290 "></polygon><rect id="XMLID_1067_" x="245" y="80" style="fill:#E8E8E8;" width="75" height="50"></rect><rect id="XMLID_1068_" x="140" y="80" style="fill:#FFFFFF;" width="75" height="50"></rect><rect id="XMLID_1069_" y="380" style="fill:#FFAA19;" width="80" height="30"></rect><rect id="XMLID_1070_" x="380" y="380" style="fill:#FF6A00;" width="80" height="30"></rect></g></svg>