<svg width="150" height="150" viewBox="0 0 150 150" fill="none" xmlns="http://www.w3.org/2000/svg">
<path d="M149.999 18.9514C149.999 18.942 149.998 18.9333 149.997 18.9239C149.995 18.8106 149.987 18.6979 149.972 18.5859C149.969 18.5638 149.965 18.542 149.961 18.5198C149.946 18.4219 149.925 18.3253 149.9 18.2304C149.895 18.2126 149.891 18.1945 149.886 18.1768C149.855 18.0718 149.818 17.9695 149.775 17.8696C149.767 17.8491 149.757 17.829 149.748 17.8089C149.703 17.7093 149.653 17.6124 149.597 17.5198L149.596 17.5185C149.538 17.4252 149.473 17.3374 149.404 17.2529C149.391 17.2364 149.377 17.2203 149.363 17.2042C149.296 17.1268 149.225 17.0523 149.149 16.9839C149.145 16.9806 149.142 16.9769 149.138 16.9739C149.078 16.9209 149.015 16.8709 148.948 16.8243C148.93 16.8112 148.91 16.8011 148.891 16.7887C148.869 16.7743 148.847 16.7606 148.824 16.7468C148.639 16.6348 148.446 16.5557 148.25 16.5084C148.232 16.5044 148.215 16.5003 148.198 16.4966C148.098 16.4752 147.996 16.4604 147.895 16.4554C147.889 16.4551 147.883 16.4554 147.876 16.4554C147.781 16.4517 147.687 16.4557 147.593 16.4661C147.575 16.4681 147.557 16.4695 147.539 16.4718C147.442 16.4849 147.346 16.505 147.251 16.5325C147.236 16.5369 147.222 16.5426 147.207 16.5473C147.121 16.5748 147.036 16.608 146.953 16.6472C146.94 16.6536 146.927 16.6586 146.914 16.6653C146.823 16.7106 146.735 16.7636 146.65 16.8229C146.636 16.8327 146.623 16.8431 146.609 16.8531C146.527 16.9135 146.447 16.9792 146.371 17.0523C146.368 17.0557 146.364 17.0587 146.361 17.0621C146.283 17.1378 146.212 17.2217 146.144 17.3105C146.137 17.3193 146.129 17.326 146.123 17.3347C146.112 17.3491 144.683 18.9333 140.134 20.9515C135.302 23.0954 126.124 26.0719 109.841 28.0743C91.3001 30.3544 83.5241 42.5605 80.2657 52.398C77.4939 60.7674 77.4798 68.7145 77.6076 71.8078L73.9689 75.4132V15.6683C73.9689 14.2756 72.9827 13.1472 71.7663 13.1472C70.5496 13.1472 69.5638 14.276 69.5638 15.6683V53.7629L66.6376 50.8634C66.7501 47.9409 66.7056 40.7151 64.1887 33.1157C61.1875 24.0551 54.0285 12.8138 36.9639 10.7152C10.5632 7.46832 4.30392 1.39779 3.85362 0.924277C3.28555 0.0838869 2.35772 -0.196132 1.47207 0.136536C0.739941 0.410853 0.235154 1.14192 0.0666968 1.98768C0.0625953 2.00612 0.0590796 2.02456 0.055564 2.04334C0.0447241 2.10371 0.0330053 2.16306 0.0256811 2.22443C0.0116185 2.33108 0.00458727 2.43906 0.00253648 2.54738C0.00224351 2.5571 0.000485694 2.56649 0.000485694 2.57622C-0.00771746 3.6765 -0.053128 29.7162 13.1162 46.5066C20.4 55.7931 30.1142 60.5987 41.4536 60.5987C43.3026 60.5987 45.1966 60.4706 47.1285 60.2137C54.9874 59.1678 61.3322 56.2958 64.0088 54.9286L69.5638 60.4327V108.032L69.5635 108.034C63.4299 108.646 56.5495 111.771 49.0691 117.36C48.0504 118.12 47.7636 119.683 48.4287 120.849C49.0937 122.015 50.4592 122.343 51.477 121.582C59.1159 115.874 65.9266 112.973 71.7151 112.957C71.7303 112.957 71.7455 112.957 71.7608 112.957C86.3389 112.988 103.835 131.207 112.967 142.065C113.582 142.796 113.378 143.6 113.262 143.912C113.146 144.227 112.778 144.957 111.884 144.957H31.6055C30.7119 144.957 30.3439 144.227 30.2268 143.912C30.111 143.6 29.9077 142.796 30.5224 142.065C34.8108 136.966 39.1122 132.393 43.3064 128.473C44.2486 127.593 44.3889 126.005 43.6196 124.926C42.8505 123.847 41.463 123.687 40.5205 124.568C36.1907 128.614 31.7587 133.324 27.3486 138.569C25.6822 140.55 25.2316 143.354 26.1729 145.887C27.116 148.424 29.1975 150 31.6052 150H111.884C114.291 150 116.373 148.424 117.316 145.886C118.257 143.354 117.807 140.549 116.14 138.568C96.5964 115.33 82.6923 108.937 73.9686 108.034V82.083L80.2361 75.8723C83.0761 77.3341 90.0594 80.5333 98.7377 81.6883C100.841 81.9679 102.899 82.1071 104.912 82.1071C117.242 82.1071 127.805 76.8827 135.722 66.7889C150.058 48.5116 150.008 20.15 149.999 18.9514ZM46.4886 55.2217C34.072 56.8364 23.9478 52.7689 16.3939 43.1373C8.96975 33.672 6.14318 20.5242 5.06681 11.8027C10.923 20.4001 16.7967 24.9706 23.3109 28.6907C21.5197 28.9382 19.3784 29.0884 16.9473 28.9949C16.9224 28.9939 16.8975 28.9935 16.8723 28.9935C15.6902 28.9935 14.7122 30.0676 14.6724 31.4309C14.632 32.8226 15.5847 33.9882 16.8005 34.0349C17.3425 34.0556 17.8708 34.065 18.3876 34.065C24.1561 34.065 28.3084 32.8551 30.0486 32.2394C30.5716 32.501 31.0992 32.7639 31.6318 33.0291C37.253 35.8283 43.3582 38.871 50.3801 43.7701C47.1132 45.0864 42.2072 46.53 37.682 45.7564C36.4784 45.5518 35.3578 46.5005 35.1782 47.8778C34.9986 49.2551 35.8283 50.5382 37.0316 50.7437C38.1343 50.9322 39.2447 51.015 40.3471 51.015C46.5557 51.015 52.4787 48.3832 54.9469 47.13C56.6037 48.4137 58.3123 49.8104 60.0745 51.3309C57.0373 52.678 52.1485 54.4862 46.4886 55.2217ZM43.8358 33.8762C43.662 31.2464 42.9774 25.6769 40.2897 20.4561C39.6721 19.2566 38.3218 18.8579 37.2735 19.5638C36.2256 20.271 35.8767 21.8163 36.494 23.0162C37.9696 25.8828 38.7182 28.9385 39.0982 31.296C37.1347 30.2709 35.2359 29.3245 33.3891 28.405C23.8432 23.6514 16.4583 19.9709 9.09163 9.49887C14.4673 11.6793 23.025 14.0724 36.4931 15.7287C48.3499 17.1868 56.2641 23.5846 60.0162 34.7445C61.5244 39.2308 62.0465 43.65 62.2012 46.85C55.3457 40.9907 49.3187 37.0041 43.8358 33.8762ZM84.3854 54.1851C88.4885 41.7969 97.2113 34.6982 110.312 33.0875C125.602 31.2072 135.077 28.4653 140.873 26.0233C133.323 37.0168 125.797 41.3579 116.372 46.0994C116.368 46.1018 116.363 46.1041 116.358 46.1068C115.523 46.527 114.673 46.9506 113.806 47.3822C111.676 48.4425 109.485 49.5341 107.212 50.7266C107.56 48.3869 108.246 45.3221 109.603 42.3117C110.161 41.0742 109.737 39.5534 108.656 38.9149C107.575 38.2767 106.247 38.7616 105.689 39.9991C103.287 45.3265 102.667 50.73 102.507 53.2954C96.4036 56.77 89.6826 61.2178 82.0162 67.8114C82.1509 64.3147 82.6865 59.3146 84.3854 54.1851ZM132.444 63.42C124.142 74.0054 113.015 78.4719 99.3778 76.6966C92.9627 75.8612 87.4525 73.7703 84.1551 72.2807C86.2206 70.4889 88.2178 68.8557 90.1513 67.3604C92.7643 68.6981 99.2835 71.6378 106.12 71.6378C107.164 71.6378 108.218 71.569 109.264 71.4155C110.471 71.238 111.323 69.9748 111.169 68.5935C111.013 67.2125 109.91 66.2386 108.703 66.4137C103.629 67.1605 98.1896 65.4623 94.6906 64.0096C102.526 58.4994 109.317 55.1164 115.563 52.0063C116.169 51.7048 116.768 51.4064 117.361 51.1093C119.201 51.7679 123.752 53.1194 130.114 53.1194C130.254 53.1194 130.395 53.1187 130.537 53.1173C131.753 53.1059 132.731 51.9678 132.721 50.5754C132.711 49.183 131.719 48.0636 130.501 48.0747C130.373 48.076 130.246 48.0767 130.12 48.0767C127.813 48.0767 125.769 47.8795 124.05 47.6082C131.554 43.3965 138.266 38.2653 144.972 28.1944C143.875 37.7324 140.84 52.7156 132.444 63.42Z" fill="black"/>
</svg>
