<!-- icon666.com - MILLIONS vector ICONS FREE --><svg id="Capa_1" enable-background="new 0 0 511 511" viewBox="0 0 511 511" xmlns="http://www.w3.org/2000/svg"><g><g id="Filled"><path d="m20.5 183.5h470v290h-470z" fill="#dba999"></path><path d="m20.5 443.5h470v30h-470z" fill="#d29380"></path><path d="m60.5 473.5v-150c0-33.137 26.863-60 60-60 33.137 0 60 26.863 60 60v150z" fill="#faef93"></path><path d="m7.5 473.5h496v30h-496z" fill="#e4e8ed"></path><path d="m220.5 183.5h270v230h-270z" fill="#c4e5f9"></path><path d="m220.5 383.5h270v30h-270z" fill="#a4d7f5"></path><path d="m220.5 186.5c0 19.33-15.67 35-35 35-19.33 0-35-15.67-35-35 0 19.33-15.67 35-35 35-19.33 0-35-15.67-35-35 0 19.33-15.67 35-35 35-19.33 0-35-15.67-35-35v-25l45-84h400l45 84v25c0 19.33-15.67 35-35 35-19.33 0-35-15.67-35-35 0 19.33-15.67 35-35 35-19.33 0-35-15.67-35-35 0 19.33-15.67 35-35 35-19.33 0-35-15.67-35-35 0 19.33-15.67 35-35 35-19.33 0-35-15.67-35-35z" fill="#e46a4a"></path><path d="m465.5 191.5c-19.33 0-35-15.67-35-35 0 19.33-15.67 35-35 35-19.33 0-35-15.67-35-35 0 19.33-15.67 35-35 35-19.33 0-35-15.67-35-35 0 19.33-15.67 35-35 35-19.33 0-35-15.67-35-35 0 19.33-15.67 35-35 35-19.33 0-35-15.67-35-35 0 19.33-15.67 35-35 35-19.33 0-35-15.67-35-35 0 19.33-15.67 35-35 35-17.835 0-32.543-13.343-34.714-30.589l-.286.589v25c0 19.33 15.67 35 35 35 19.33 0 35-15.67 35-35 0 19.33 15.67 35 35 35 19.33 0 35-15.67 35-35 0 19.33 15.67 35 35 35 19.33 0 35-15.67 35-35 0 19.33 15.67 35 35 35 19.33 0 35-15.67 35-35 0 19.33 15.67 35 35 35 19.33 0 35-15.67 35-35 0 19.33 15.67 35 35 35 19.33 0 35-15.67 35-35 0 19.33 15.67 35 35 35 19.33 0 35-15.67 35-35v-25l-.283-.616c-2.158 17.259-16.873 30.616-34.717 30.616z" fill="#db380e"></path><g fill="#fff"><path d="m166.5 77.5-16 84v25c0 19.33-15.67 35-35 35-19.33 0-35-15.67-35-35v-25l26-84z"></path><path d="m286.5 77.5 4 84v25c0 19.33-15.67 35-35 35-19.33 0-35-15.67-35-35v-25l6-84z"></path><path d="m406.5 77.5 24 84v25c0 19.33-15.67 35-35 35-19.33 0-35-15.67-35-35v-25l-14-84z"></path></g><g fill="#eaeaeb"><path d="m150.728 160.447c-.146-1.297-.228-2.612-.228-3.947 0 19.33-15.67 35-35 35-17.892 0-32.638-13.429-34.735-30.755l-.265.755v25c0 19.33 15.67 35 35 35 19.33 0 35-15.67 35-35v-25z"></path><path d="m290.38 159.28c-1.418 18.029-16.487 32.22-34.88 32.22-18.263 0-33.252-13.991-34.851-31.838l-.149 1.838v25c0 19.33 15.67 35 35 35 19.33 0 35-15.67 35-35v-25z"></path><path d="m430.24 160.699c-2.076 17.349-16.833 30.801-34.74 30.801-19.33 0-35-15.67-35-35 0 1.304-.077 2.59-.216 3.857l.216 1.143v25c0 19.33 15.67 35 35 35 19.33 0 35-15.67 35-35v-25z"></path></g><path d="m55.5 7.5h400v70h-400z" fill="#e46a4a"></path><path d="m55.5 47.5h400v30h-400z" fill="#db380e"></path><path d="m60.5 443.5h120v30h-120z" fill="#f8e868"></path></g><g id="Outline"><path d="m83 370.5h15v15h-15z"></path><path d="m498 466v-252.155c6.233-7.397 10-16.937 10-27.345v-26.882l-21.023-39.245-13.223 7.083 14.22 26.544h-51.817l-19.714-69h34.566l15.661 29.234 13.222-7.083-16.892-31.534v-75.617h-142.5v15h127.5v55h-385v-55h242.5v-15h-257.5v75.617l-45 84v26.883c0 10.408 3.767 19.948 10 27.345v54.655h15v-43.286c5.341 2.424 11.263 3.786 17.5 3.786 14.504 0 27.327-7.307 35-18.429 7.673 11.122 20.496 18.429 35 18.429s27.327-7.307 35-18.429c7.673 11.122 20.496 18.429 35 18.429 10.481 0 20.082-3.822 27.5-10.134v247.134h-25v-142.5c0-37.22-30.28-67.5-67.5-67.5s-67.5 30.28-67.5 67.5v142.5h-25v-182.5h-15v182.5h-13v45h78.5v-15h-63.5v-15h301.5v-15h-88.5v-45h255v15h-52.5v15h52.5v15h-151.5v15h164.5v15h-402.5v15h417.5v-45zm-325-60h-22.5v15h22.5v15h-42.5v15h42.5v15h-105v-142.5c0-28.949 23.551-52.5 52.5-52.5s52.5 23.551 52.5 52.5zm-100-219.5c0 15.164-12.336 27.5-27.5 27.5s-27.5-12.336-27.5-27.5v-17.5h55zm1.97-32.5h-51.944l36.964-69h36.337zm68.03 32.5c0 15.164-12.336 27.5-27.5 27.5s-27.5-12.336-27.5-27.5v-17.5h55zm1.294-32.5h-53.622l21.357-69h45.407zm68.706 32.5c0 15.164-12.336 27.5-27.5 27.5s-27.5-12.336-27.5-27.5v-17.5h55zm.517-32.5h-53.953l13.143-69h45.739zm187.326-69 19.714 69h-53.704l-11.5-69zm-60.696 0 11.5 69h-53.995l-3.286-69zm-106.664 0h45.865l3.286 69h-54.079zm-5.483 84h55v17.5c0 15.164-12.336 27.5-27.5 27.5s-27.5-12.336-27.5-27.5zm75 237h-75v-55h75zm0-70h-75v-55h75zm0-70h-75v-47.134c7.418 6.313 17.019 10.134 27.5 10.134 14.504 0 27.327-7.307 35-18.429 3.303 4.788 7.563 8.865 12.5 11.96zm-5-79.5v-17.5h55v17.5c0 15.164-12.336 27.5-27.5 27.5s-27.5-12.336-27.5-27.5zm95 219.5h-75v-55h75zm0-70h-75v-55h75zm0-70h-75v-37.676c2.437.436 4.94.676 7.5.676 14.504 0 27.327-7.307 35-18.429 7.228 10.478 19.03 17.563 32.5 18.349zm-25-79.5v-17.5h55v17.5c0 15.164-12.336 27.5-27.5 27.5s-27.5-12.336-27.5-27.5zm115 219.5h-75v-55h75zm0-70h-75v-55h75zm0-70h-75v-38.879c9.233-2.847 17.128-8.763 22.5-16.55 7.673 11.122 20.496 18.429 35 18.429 6.237 0 12.159-1.362 17.5-3.786zm10-79.5c0 15.164-12.336 27.5-27.5 27.5s-27.5-12.336-27.5-27.5v-17.5h55z"></path></g><g fill="#fff"><path d="m100.5 436h15v15h-15z"></path><path d="m400.5 436h15v15h-15z"></path><path d="m293 50h-15v-15h15zm-30 0h-15v-15h15zm-30 0h-15v-15h15z"></path></g></g></svg>