<!-- icon666.com - MILLIONS vector ICONS FREE --><svg version="1.1" id="Capa_1" xmlns="http://www.w3.org/2000/svg" xmlns:xlink="http://www.w3.org/1999/xlink" x="0px" y="0px" viewBox="0 0 512 512" style="enable-background:new 0 0 512 512;" xml:space="preserve"><polygon style="fill:#4A696F;" points="512,219.101 393.701,467 107.8,467 0,219.101 100.3,132.4 256,132.4 411.7,132.1 "></polygon><polygon style="fill:#384949;" points="512,219.101 393.701,467 256,467 256,132.4 411.7,132.1 "></polygon><rect x="91" style="fill:#FAECD8;" width="330" height="374.8"></rect><rect x="256" style="fill:#F8E5CA;" width="165" height="374.8"></rect><path style="fill:#FF9100;" d="M301,196c0,19.501-12.599,36-30,42.299V271h-30v-32.701C223.599,232,211,215.501,211,196h30 c0,8.401,6.599,15,15,15s15-6.599,15-15s-6.599-15-15-15c-24.901,0-45-20.099-45-45c0-19.501,12.599-36,30-42.299V61h30v32.701 C288.401,100,301,116.499,301,136h-30c0-8.401-6.599-15-15-15s-15,6.599-15,15s6.599,15,15,15C280.901,151,301,171.099,301,196z"></path><polygon style="fill:#FF7816;" points="303.525,351.643 410.219,492.781 512,512 512,219.203 "></polygon><polygon style="fill:#FF9100;" points="0,219.101 0,512 190.844,442.625 208.299,351.7 "></polygon><g><path style="fill:#FF7816;" d="M301,196c0,19.501-12.599,36-30,42.299V271h-15v-60c8.401,0,15-6.599,15-15s-6.599-15-15-15v-30 C280.901,151,301,171.099,301,196z"></path><path style="fill:#FF7816;" d="M256,121V61h15v32.701C288.401,100,301,116.499,301,136h-30C271,127.599,264.401,121,256,121z"></path></g><polygon style="fill:#FDBF00;" points="512,512 0,512 256,316 "></polygon><polygon style="fill:#FF9F00;" points="512,512 256,512 256,316 "></polygon></svg>